<svg id="图层_1" data-name="图层 1" xmlns="http://www.w3.org/2000/svg" xmlns:xlink="http://www.w3.org/1999/xlink" viewBox="0 0 1515 1280"><defs><style>.cls-1,.cls-45,.cls-46{fill:#fbe1ec;}.cls-2{fill:#a31e5a;}.cls-3{fill:url(#linear-gradient);}.cls-4{fill:none;stroke:#533419;stroke-width:1.49px;}.cls-4,.cls-44,.cls-45,.cls-46{stroke-linecap:round;}.cls-11,.cls-12,.cls-4{stroke-miterlimit:10;}.cls-18,.cls-26,.cls-5{fill:#fff;}.cls-6{fill:url(#linear-gradient-2);}.cls-7{fill:url(#linear-gradient-3);}.cls-8{fill:#9f6231;}.cls-9{fill:url(#linear-gradient-4);}.cls-10{fill:url(#linear-gradient-5);}.cls-11,.cls-12,.cls-46{stroke:#fff;}.cls-11{fill:url(#radial-gradient);}.cls-12{fill:url(#radial-gradient-2);}.cls-13{fill:#353434;}.cls-14{fill:url(#linear-gradient-6);}.cls-15{fill:url(#linear-gradient-7);}.cls-16{fill:#e4b322;}.cls-17{fill:#db888e;}.cls-18{opacity:0.44;}.cls-19,.cls-25{fill:#edeced;}.cls-19{opacity:0.58;}.cls-20{fill:url(#linear-gradient-8);}.cls-21{fill:url(#linear-gradient-9);}.cls-22{fill:url(#linear-gradient-10);}.cls-23{fill:url(#linear-gradient-11);}.cls-24{fill:url(#linear-gradient-12);}.cls-25{opacity:0.39;}.cls-26{opacity:0.54;}.cls-27{fill:url(#linear-gradient-13);}.cls-28{fill:url(#linear-gradient-14);}.cls-29{fill:url(#linear-gradient-15);}.cls-30{fill:#442325;opacity:0.68;}.cls-31{fill:#f3f4f5;}.cls-32{fill:url(#linear-gradient-16);}.cls-33{fill:url(#linear-gradient-17);}.cls-34{fill:url(#linear-gradient-18);}.cls-35{fill:url(#linear-gradient-19);}.cls-36{fill:url(#linear-gradient-20);}.cls-37{fill:url(#linear-gradient-21);}.cls-38{fill:url(#linear-gradient-22);}.cls-39{fill:#0b7762;}.cls-40{fill:url(#linear-gradient-23);}.cls-41{fill:url(#linear-gradient-24);}.cls-42{fill:url(#linear-gradient-25);}.cls-43{fill:#8c8b8b;opacity:0.14;}.cls-44,.cls-45{stroke:#f8c8db;}.cls-44,.cls-45,.cls-46{stroke-linejoin:round;stroke-width:3px;}.cls-44{fill:url(#linear-gradient-26);}</style><linearGradient id="linear-gradient" x1="151.76" y1="980.83" x2="645.72" y2="980.83" gradientUnits="userSpaceOnUse"><stop offset="0" stop-color="#452511"/><stop offset="0" stop-color="#462611"/><stop offset="0.06" stop-color="#4d2b14"/><stop offset="0.48" stop-color="#7a4924"/><stop offset="0.81" stop-color="#955b2d"/><stop offset="1" stop-color="#9f6231"/></linearGradient><linearGradient id="linear-gradient-2" x1="569.95" y1="728.16" x2="569.95" y2="488.75" xlink:href="#linear-gradient"/><linearGradient id="linear-gradient-3" x1="293.84" y1="587.5" x2="292.49" y2="649.98" gradientTransform="translate(-146.93 506.43) rotate(-27.7)" xlink:href="#linear-gradient"/><linearGradient id="linear-gradient-4" x1="313.23" y1="916.86" x2="403.12" y2="342.41" xlink:href="#linear-gradient"/><linearGradient id="linear-gradient-5" x1="378.96" y1="898.4" x2="458.89" y2="662.12" gradientUnits="userSpaceOnUse"><stop offset="0" stop-color="#eacad9"/><stop offset="0.6" stop-color="#ece2e7"/><stop offset="1" stop-color="#edeced"/></linearGradient><radialGradient id="radial-gradient" cx="388.66" cy="416.68" r="49.5" gradientUnits="userSpaceOnUse"><stop offset="0" stop-color="#b9ae8d"/><stop offset="1" stop-color="#edeced"/></radialGradient><radialGradient id="radial-gradient-2" cx="529.87" cy="404.31" r="58.9" xlink:href="#radial-gradient"/><linearGradient id="linear-gradient-6" x1="372.9" y1="350.83" x2="297.83" y2="311.55" xlink:href="#linear-gradient"/><linearGradient id="linear-gradient-7" x1="518.75" y1="1036.93" x2="517.39" y2="1099.41" gradientTransform="matrix(1.24, 0.33, -0.26, 0.97, -85.18, -285.73)" xlink:href="#linear-gradient"/><linearGradient id="linear-gradient-8" x1="451.28" y1="527.57" x2="474.69" y2="470.96" gradientUnits="userSpaceOnUse"><stop offset="0.15" stop-color="#b38b14"/><stop offset="0.86" stop-color="#ffe24c"/></linearGradient><linearGradient id="linear-gradient-9" x1="474.31" y1="506.95" x2="490.56" y2="442.16" xlink:href="#linear-gradient-8"/><linearGradient id="linear-gradient-10" x1="470.27" y1="437.59" x2="471.08" y2="437.59" xlink:href="#linear-gradient"/><linearGradient id="linear-gradient-11" x1="607.08" y1="96.91" x2="607.89" y2="96.91" gradientTransform="translate(-131.35 338.86)" xlink:href="#linear-gradient"/><linearGradient id="linear-gradient-12" x1="733.16" y1="-36.8" x2="924.65" y2="-159.73" gradientTransform="matrix(0.36, -0.93, 0.85, 0.33, 35.51, 1468.17)" xlink:href="#linear-gradient"/><linearGradient id="linear-gradient-13" x1="616.98" y1="588.15" x2="688.49" y2="542.24" xlink:href="#linear-gradient"/><linearGradient id="linear-gradient-14" x1="2081.5" y1="206.12" x2="2177.99" y2="206.12" gradientTransform="matrix(-0.43, 0.9, -0.9, -0.43, 1880.04, -778.69)" xlink:href="#linear-gradient"/><linearGradient id="linear-gradient-15" x1="2134.49" y1="138.89" x2="2185.15" y2="138.89" gradientTransform="matrix(-0.43, 0.9, -0.9, -0.43, 1880.04, -778.69)" xlink:href="#linear-gradient-5"/><linearGradient id="linear-gradient-16" x1="939.88" y1="1103.46" x2="1000.96" y2="1103.46" xlink:href="#linear-gradient"/><linearGradient id="linear-gradient-17" x1="973.42" y1="1060.9" x2="1005.49" y2="1060.9" xlink:href="#linear-gradient-5"/><linearGradient id="linear-gradient-18" x1="1910.93" y1="983.36" x2="1989.04" y2="983.36" gradientTransform="translate(737.49 -919.98) rotate(59.19)" xlink:href="#linear-gradient"/><linearGradient id="linear-gradient-19" x1="1953.83" y1="928.86" x2="1994.85" y2="928.86" gradientTransform="translate(737.49 -919.98) rotate(59.19)" xlink:href="#linear-gradient-5"/><linearGradient id="linear-gradient-20" x1="1613.21" y1="90.78" x2="1855.37" y2="90.78" gradientTransform="matrix(0.21, 0.98, 0.98, -0.21, 635.98, -880.21)" xlink:href="#linear-gradient"/><linearGradient id="linear-gradient-21" x1="1746.23" y1="-78.23" x2="1873.39" y2="-78.23" gradientTransform="matrix(0.21, 0.98, 0.98, -0.21, 635.98, -880.21)" xlink:href="#linear-gradient-5"/><linearGradient id="linear-gradient-22" x1="685.45" y1="1033.8" x2="686.46" y2="952.56" gradientUnits="userSpaceOnUse"><stop offset="0.07" stop-color="#0b7762"/><stop offset="0.67" stop-color="#678f72"/></linearGradient><linearGradient id="linear-gradient-23" x1="1429.19" y1="1209.91" x2="1430.21" y2="1128.66" gradientTransform="translate(897.68 -786.47) rotate(63.5)" xlink:href="#linear-gradient-22"/><linearGradient id="linear-gradient-24" x1="1776.1" y1="-213.28" x2="1776.47" y2="-243.12" gradientTransform="matrix(-0.06, 1, 1, 0.06, 850.51, -780.08)" xlink:href="#linear-gradient-22"/><linearGradient id="linear-gradient-25" x1="397.83" y1="619.66" x2="398.61" y2="557.09" gradientTransform="translate(20.5 690.52) rotate(-34.62)" xlink:href="#linear-gradient-22"/><linearGradient id="linear-gradient-26" x1="1065.56" y1="505.1" x2="1073.68" y2="478.52" gradientUnits="userSpaceOnUse"><stop offset="0.01" stop-color="#fbe1ec"/><stop offset="1" stop-color="#f5a9ca"/></linearGradient></defs><title>bird</title><path class="cls-1" d="M80.22,626C80.22,289.82,352.78,17.27,689,17.27S1297.75,289.82,1297.75,626"/><path class="cls-2" d="M1284.68,628.83a150.71,150.71,0,0,0-301.34,0h-2.29a150.71,150.71,0,0,0-301.34,0h-4.4a150.71,150.71,0,0,0-301.34,0h-2.29a150.71,150.71,0,0,0-301.34,0h-1c0,336.21,272.55,608.76,608.76,608.76S1286.87,965,1286.87,628.83Z"/><path class="cls-3" d="M225,1026.65l406-62.18a14.73,14.73,0,0,0,14.73-14.73h0A14.73,14.73,0,0,0,631,935H151.76s40.51,68.65,65.54,91.64Z"/><path class="cls-4" d="M640.33,475.63s-11.88,39.2,9.5,39.2"/><path class="cls-5" d="M771.7,538.35a221.72,221.72,0,0,0,65.09,75.52c99,72.84,238.38,51.61,311.22-47.43s51.61-238.38-47.43-311.22S862.2,203.61,789.36,302.64a222.06,222.06,0,0,0-38.45,178s-19.48,30-52.2,31.63c0,0,39,37.59,73,26"/><path class="cls-6" d="M689,594.7C681.72,705.12,566,719.59,531.7,723.25c-58.2,6.23-108.61-101.41-63.24-157.45,0,0,77.69-19.13,109.42-53.37q2.55-2.76,5-5.2l2.68-3.55s39-35.05,48.23-52.8c18.77-36,66.29-12.47,36.75,26.91-18,24-41.62,39.23-41.62,39.23"/><path class="cls-7" d="M414,856.67l13.87,26.41a40.1,40.1,0,0,1-16.82,54h0a40.1,40.1,0,0,1-54-16.82L343.77,895"/><path class="cls-8" d="M503.19,280.84s37.33-12.84,48-32.88,50.93,59.25-23.55,83.46"/><path class="cls-9" d="M419,890.91c152.5-80.21,162.38-320,162.38-320V388.23A159.05,159.05,0,0,0,422.34,229.17h0A159.05,159.05,0,0,0,263.29,388.23v54.47s.89,55.06,0,73.38c-4.62,94.66-62.58,207.11-62.58,207.11s-8.39,24.73-20.51,12.61-76.78-56.58-44.45,30.31S252.94,978.26,419,890.91Z"/><path class="cls-10" d="M342.39,748.31V693.84A159.05,159.05,0,0,1,501.44,534.78h0c28.2,0,58.34,7.34,81.31,20.21,0,0,2.41,222.23-137.88,318.79C288.19,981.62,342.39,748.31,342.39,748.31Z"/><path class="cls-11" d="M456.15,425.19c0,37.28-20.69,52.49-58,52.49s-77-15.22-77-52.49a67.49,67.49,0,0,1,135,0Z"/><path class="cls-12" d="M576.64,349.25c-4.71-9-21.68-9-32.51-9a67.49,67.49,0,0,0-67.49,67.49c0,37.28,29.91,59.81,67.19,59.81,14,0,27.27,3.43,38-3.84C581.86,463.72,586.94,368.9,576.64,349.25Z"/><path class="cls-13" d="M563.84,408.37c0,13-10.43,14.55-23.45,14.55s-23.7-1.53-23.7-14.55a23.57,23.57,0,0,1,47.15,0Z"/><path class="cls-13" d="M412.21,426.49c0,13-10.43,14.55-23.45,14.55s-23.7-1.53-23.7-14.55a23.57,23.57,0,1,1,47.15,0Z"/><path class="cls-14" d="M293.59,344.88c-74.48-24.21-34.27-103.5-23.55-83.46s48,32.88,48,32.88,16,20.7,0,36.73S293.59,344.88,293.59,344.88Z"/><path class="cls-15" d="M342.18,885.85l-7.75,28.81c-5.72,21.24-32.69,32.61-60,25.28h0c-27.26-7.34-44.88-30.71-39.17-52l7.42-27.58"/><rect class="cls-16" x="386.23" y="920.84" width="16.98" height="50.95" rx="1.72" ry="1.72"/><rect class="cls-16" x="404.43" y="920.84" width="16.98" height="50.95" rx="1.72" ry="1.72"/><rect class="cls-16" x="368.02" y="920.84" width="16.98" height="50.95" rx="1.72" ry="1.72"/><rect class="cls-16" x="279.47" y="926.86" width="16.98" height="50.95" rx="1.72" ry="1.72"/><rect class="cls-16" x="297.68" y="926.86" width="16.98" height="50.95" rx="1.72" ry="1.72"/><rect class="cls-16" x="261.27" y="926.86" width="16.98" height="50.95" rx="1.72" ry="1.72"/><path class="cls-13" d="M431.48,598.77c-2.38-.3-2.71,7.85-7.3,11.28-7.15,5.34-7,14.29-1.33,16.93,4.94,2.3,9.19-3.28,10.71-7.68C435.74,613,434.62,599.17,431.48,598.77Z"/><path class="cls-13" d="M444.28,649.86c-1.59-.2-1.81,5.26-4.89,7.56-4.79,3.58-4.69,9.57-.89,11.34,3.31,1.54,6.16-2.2,7.18-5.15C447.14,659.37,446.38,650.12,444.28,649.86Z"/><path class="cls-13" d="M404.7,649.86c-1.59-.2-1.81,5.26-4.89,7.56-4.79,3.58-4.69,9.57-.89,11.34,3.31,1.54,6.16-2.2,7.18-5.15C407.56,659.37,406.81,650.12,404.7,649.86Z"/><path class="cls-13" d="M486.51,650.11c-1.59-.2-1.81,5.26-4.89,7.56-4.79,3.58-4.69,9.57-.89,11.34,3.31,1.54,6.16-2.2,7.18-5.15C489.37,659.63,488.62,650.38,486.51,650.11Z"/><path class="cls-13" d="M524.4,651.86c-1.59-.2-1.81,5.26-4.89,7.56-4.79,3.58-4.69,9.57-.89,11.34,3.31,1.54,6.16-2.2,7.18-5.15C527.26,661.37,526.51,652.12,524.4,651.86Z"/><path class="cls-13" d="M550.37,658.36c-1-.13-1.18,3.42-3.18,4.91-3.11,2.33-3,6.22-.58,7.37,2.15,1,4-1.43,4.66-3.34C552.22,664.54,551.73,658.53,550.37,658.36Z"/><path class="cls-13" d="M498.63,693.34c-1.28-.16-1.46,4.24-3.94,6.09-3.86,2.88-3.78,7.71-.72,9.14,2.67,1.24,5-1.77,5.78-4.15C500.93,701,500.33,693.55,498.63,693.34Z"/><path class="cls-13" d="M531.28,698.54c-.77-.1-.87,2.53-2.36,3.64-2.31,1.72-2.26,4.61-.43,5.46,1.59.74,3-1.06,3.46-2.48C532.65,703.12,532.29,698.67,531.28,698.54Z"/><path class="cls-13" d="M458,691.26c-1.28-.16-1.46,4.24-3.94,6.09-3.86,2.88-3.78,7.71-.72,9.14,2.67,1.24,5-1.77,5.78-4.15C460.3,698.92,459.7,691.47,458,691.26Z"/><path class="cls-13" d="M418.43,691.26c-1.28-.16-1.46,4.24-3.94,6.09-3.86,2.88-3.78,7.71-.72,9.14,2.67,1.24,5-1.77,5.78-4.15C420.72,698.92,420.12,691.47,418.43,691.26Z"/><path class="cls-13" d="M508,737.44c-1.28-.16-1.46,4.24-3.94,6.09-3.86,2.88-3.78,7.71-.72,9.14,2.67,1.24,5-1.77,5.78-4.15C510.33,745.11,509.73,737.66,508,737.44Z"/><path class="cls-13" d="M467.4,735.36c-1.28-.16-1.46,4.24-3.94,6.09-3.86,2.88-3.78,7.71-.72,9.14,2.67,1.24,5-1.77,5.78-4.15C469.7,743,469.1,735.57,467.4,735.36Z"/><path class="cls-13" d="M427.82,735.36c-1.28-.16-1.46,4.24-3.94,6.09-3.86,2.88-3.78,7.71-.72,9.14,2.67,1.24,5-1.77,5.78-4.15C430.12,743,429.52,735.57,427.82,735.36Z"/><path class="cls-13" d="M480,778.64c-1.28-.16-1.46,4.24-3.94,6.09-3.86,2.88-3.78,7.71-.72,9.14,2.67,1.24,5-1.77,5.78-4.15C482.34,786.31,481.73,778.86,480,778.64Z"/><path class="cls-13" d="M440.46,778.64c-1.28-.16-1.46,4.24-3.94,6.09-3.86,2.88-3.78,7.71-.72,9.14,2.67,1.24,5-1.77,5.78-4.15C442.76,786.31,442.16,778.86,440.46,778.64Z"/><path class="cls-13" d="M474.59,590.06c-2.38-.3-2.71,7.85-7.3,11.28-7.15,5.34-7,14.29-1.33,16.93,4.94,2.3,9.19-3.28,10.71-7.68C478.85,604.27,477.73,590.46,474.59,590.06Z"/><path class="cls-13" d="M520.32,587.89c-2.38-.3-2.71,7.85-7.3,11.28-7.15,5.34-7,14.29-1.33,16.93,4.94,2.3,9.19-3.28,10.71-7.68C524.58,602.09,523.46,588.29,520.32,587.89Z"/><path class="cls-13" d="M556.65,602.16c-1.6-.2-1.82,5.28-4.92,7.6-4.81,3.6-4.72,9.62-.89,11.4,3.33,1.55,6.19-2.21,7.21-5.17C559.51,611.73,558.76,602.43,556.65,602.16Z"/><ellipse class="cls-17" cx="484.87" cy="488.28" rx="8.86" ry="12.73" transform="translate(-195.76 589.58) rotate(-53.67)"/><circle class="cls-18" cx="476.23" cy="452.27" r="13.16"/><circle class="cls-19" cx="375.79" cy="415.22" r="4.93"/><circle class="cls-19" cx="530.76" cy="396.6" r="4.93"/><path class="cls-20" d="M485.75,476.64s10.67,9.29,10.67,14.8c0,4.75-5.07,6.52-6.48,6.92a1.49,1.49,0,0,0-.37.1c-5.48,2.39-10.87-7.32-10.87-7.32-3.36-9.55-14-18.13-14-18.13a11.49,11.49,0,0,0-8.6,2.71l-2.2-21.1s-5.81,14.84-10.76,16.76c-6.58,2.55-9.14,8.27-3.63,11.81,2.77,1.78,11.19,6.62,16.32,12.71a32.51,32.51,0,0,0,4.42,6.23c6.73,7.39,15.57,10.63,21.89,8.73,4.14-.67,15.34-3.16,15.34-10.46C497.46,491.44,500.55,487.66,485.75,476.64Z"/><path class="cls-21" d="M484.51,433.39a32.94,32.94,0,0,0-5.12.44c-1.39-1.47-4-4.57-4.44-7.59-.59-4.14-6.5-5.71-8.28-3-1.57,2.44,1,10.88-.83,15.93a32.81,32.81,0,0,0-14.2,27c0,6.79.39,14.74,5.58,18.33,7,4.82,19.92,4.72,33.66-4.11,0,0,15.92-5.7,18.75,7,1.63,7.31,7.74-13.11,7.74-21.18A32.86,32.86,0,0,0,484.51,433.39Z"/><ellipse class="cls-22" cx="470.67" cy="437.59" rx="0.41" ry="1.3"/><ellipse class="cls-23" cx="476.14" cy="435.77" rx="0.41" ry="1.3" transform="translate(-168.68 464.31) rotate(-45)"/><path class="cls-24" d="M246.65,553c-24.2,19.53-46.32,69.41-88.73,88.69-91.25,41.46-5.84,78.7,44.92,74.3S329,692.74,370.5,648.79,304,506.77,246.65,553Z"/><rect class="cls-25" x="265.48" y="930.7" width="8.63" height="27.76" rx="0.87" ry="0.87"/><rect class="cls-25" x="283.11" y="930.7" width="8.63" height="27.76" rx="0.87" ry="0.87"/><rect class="cls-25" x="301.11" y="930.7" width="8.63" height="27.76" rx="0.87" ry="0.87"/><rect class="cls-25" x="372.57" y="923.88" width="8.63" height="27.76" rx="0.87" ry="0.87"/><rect class="cls-25" x="390.2" y="923.88" width="8.63" height="27.76" rx="0.87" ry="0.87"/><rect class="cls-25" x="408.2" y="923.88" width="8.63" height="27.76" rx="0.87" ry="0.87"/><path class="cls-26" d="M476.23,439.11s6.15-.4,8-2.43,14.72-.46,24.2,10.69c6.51,7.66,5.7,11.53,4.35,12.44s-10.94-13.42-23.58-12.29S469.4,442.21,476.23,439.11Z"/><path class="cls-27" d="M624.74,505.58c10.45-6.59,39.53-16.13,52,20.23s20.33,38.74,29.61,49.88c6.14,7.36,3.08,33.8-19.27,44.71s-26.5-15.07-43.64-43.64S593,525.57,624.74,505.58Z"/><path class="cls-28" d="M804.79,1122.36a49.8,49.8,0,0,1-3.55-6.39l3.93-25.29-8.69,15.06s-36.48-66.94-40.77-76.15c-4.76-10.23-13.5-15.41-.48-29.5,0,0,16.3-12,31.23,18.44,13.5,27.53,32.86,57.39,46.83,70.9l-20,.82Z"/><path class="cls-29" d="M831.62,1086.9a51.91,51.91,0,0,0,4.24,3.72c14,10.87,37.58,23,24.3,44.44-12.12,19.55-43,6.34-57.05-15.24l8.46-31Z"/><path class="cls-30" d="M857.79,1129.93s-73.87-51.64-98.61-131.22l-2.09.07S777.56,1074.15,857.79,1129.93Z"/><path class="cls-31" d="M757.85,999.83a.94.94,0,0,0,1.25-.45.93.93,0,0,0,0-.67h0c-2.21-9.42-13.19-29.27-12.83-36.5,0,0-4.86-4.46-6.16.14s15.19,32.7,16.9,36.43h.25A.93.93,0,0,0,757.85,999.83Z"/><path class="cls-32" d="M963.37,1090.37c5-8.21,9-16,11-21.85l5.86,11.23L1001,1076a31.53,31.53,0,0,1-2.7,3.75l-15.54,4.57,11,.91s-28.49,38.95-32.61,43.89c-4.57,5.49-5.18,11.89-16.76,8.23,0,0-11.28-6.1,2.13-22.86,4.94-6.17,9.84-13,14.17-19.73l5.38,11.83.51-.69Z"/><path class="cls-33" d="M973.42,1070.16a32.86,32.86,0,0,0,1-3.43c2.44-11,3-27.73,18.9-25.91,14.47,1.67,15.22,22.89,6.66,36.78l-20,3.52Z"/><path class="cls-30" d="M991,1043.57s-9.65,56.23-48.55,91.87l.6,1.17S980.7,1104.56,991,1043.57Z"/><path class="cls-31" d="M943.46,1135.89a.6.6,0,0,0-.6-.6.59.59,0,0,0-.4.16v0c-4.8,3.8-13.21,15.45-17.44,17.19,0,0-1.25,4,1.74,3.49s14.63-17.52,16.3-19.51l-.07-.14A.59.59,0,0,0,943.46,1135.89Z"/><path class="cls-34" d="M901.47,1242.15c12.32.16,23.48-.53,31.23-2.18l-8.5,13.79L941.91,1274a40.31,40.31,0,0,1-5.89-.51l-15.2-14.08,6.18,12.65s-61.44-5.78-69.56-7.07c-9-1.43-16.45,2.09-20-13,0,0-.69-16.38,26.5-12.63,10,1.38,20.73,2.28,30.95,2.65l-9.47,13.65,1.09.1Z"/><path class="cls-35" d="M951.28,1247.83l6.24-15.89c-7.56.73-15.83,4.52-22.77,6.81a42,42,0,0,1-4.41,1.17l-7.77,14.33,17,19.69c20.86.3,43.67-14.43,36-31.41-3.8-8.44-9.75-10.93-16.39-10.71,0,0-7.34,15.33-7.41,15.87"/><path class="cls-30" d="M971,1241.84s-68.07,26.23-132.69,6.85l-.89,1.43S897.24,1270.48,971,1241.84Z"/><path class="cls-31" d="M838.43,1250.1a.76.76,0,0,0,.26-1,.75.75,0,0,0-.43-.33l0,0c-7.32-2.78-25.61-4.38-30.3-7.89,0,0-5.19,1.24-2.69,4.2s28.82,4.59,32.1,5.13l.11-.17A.75.75,0,0,0,838.43,1250.1Z"/><path class="cls-36" d="M1040.2,778C1012.7,804.51,986,826.65,965,839.39l48.48,13.14,2.93,83.31a125,125,0,0,0,12.24-13.66l4.48-64.08L1046,899.82s126.57-143.48,142.19-163.62c17.35-22.37,41.62-30.18,17.6-71.91,0,0-33.2-38.48-86.7,27.71-19.7,24.38-42,49.16-64.33,71.67l50.39,10.75L1102.9,777Z"/><path class="cls-37" d="M939.66,896.58l-47.82-22.66c18.63-14.4,45.38-23.39,65.93-32.94a130.29,130.29,0,0,0,12.45-6.73l48,15.9,3.43,80.55c-46.49,44.95-129.32,60.09-148.09,5.49-9.33-27.15-1.17-45.4,14.31-59,0,0,49.13,19.08,50.44,20.14"/><path class="cls-30" d="M882.47,924.84S1092,839.64,1196.88,658.68l5.06,1.34S1109.89,833.06,882.47,924.84Z"/><path class="cls-31" d="M1199.53,662.18a2.37,2.37,0,0,1-2.82-1.8,2.34,2.34,0,0,1,.27-1.67l-.1,0c10.65-21.81,48.58-64.28,51.73-82.17,0,0,14.38-8.22,15,3.79s-55.38,71.55-61.66,79.72l-.61-.16A2.33,2.33,0,0,1,1199.53,662.18Z"/><path class="cls-38" d="M726.74,980.68a40.63,40.63,0,0,1-81.25,0,21.5,21.5,0,0,1,1.23-5.71c1.3-3.53,4-7.37,9.36-7.32,9.95.1,16.58,14.53,32.31,15.33s31-2.53,34-8.58S726.74,980.68,726.74,980.68Z"/><path class="cls-39" d="M640.11,964.25s8.62,4.37,9,8a1.38,1.38,0,0,0,1.82-1.46c0-1.94-5.71-11.17-8.87-11.9S637.93,963.77,640.11,964.25Z"/><path class="cls-39" d="M726.74,980.68s-10.92,43.85-44.94,34.73-32.69-43.15-32.69-43.15l1.27-.32s-1.14,32.88,31.91,41.84S726.74,980.68,726.74,980.68Z"/><path class="cls-40" d="M518.48,1045.65a40.63,40.63,0,1,1-36.25-72.72,21.5,21.5,0,0,1,5.66-1.45c3.74-.41,8.37.26,10.73,5.12,4.35,8.95-5.61,21.33.7,35.76s16.1,26.63,22.83,26.56S518.48,1045.65,518.48,1045.65Z"/><path class="cls-39" d="M494.53,960.8s-.07,9.67-3.16,11.62a1.38,1.38,0,0,0,2.12,1c1.74-.87,7.45-10.09,6.7-13.25S494,958.63,494.53,960.8Z"/><path class="cls-39" d="M518.48,1045.65s-44.12,9.8-51.14-24.72,24-48.51,24-48.51l.86,1s-29.94,13.65-23.21,47.22S518.48,1045.65,518.48,1045.65Z"/><path class="cls-41" d="M505.52,993a14.92,14.92,0,0,0,1.88-29.78,7.9,7.9,0,0,0-2.12.32,3.59,3.59,0,0,0-2.9,3.26c-.19,3.65,4.94,6.41,4.87,12.2s-1.64,11.31-3.93,12.25S505.52,993,505.52,993Z"/><path class="cls-39" d="M501.5,960.87s1.4,3.26,2.73,3.48a.51.51,0,0,1-.58.63c-.71,0-4-2.35-4.16-3.52S501.37,960.05,501.5,960.87Z"/><path class="cls-39" d="M505.52,993s16.33-3,13.77-15.67-15.06-13-15.06-13l-.15.46s12.08.34,14.6,12.66S505.52,993,505.52,993Z"/><path class="cls-42" d="M702.85,922.76a31.29,31.29,0,1,1-51.5,35.55,16.56,16.56,0,0,1-1.72-4.16c-.72-2.81-.71-6.41,2.73-8.74,6.35-4.29,16.87,2,27.18-4.42s18.55-15.17,17.77-20.3S702.85,922.76,702.85,922.76Z"/><path class="cls-39" d="M640.76,950.25s7.38-1,9.2,1.15a1.06,1.06,0,0,0,.52-1.72c-.85-1.23-8.51-4.58-10.83-3.67S639.16,950.89,640.76,950.25Z"/><path class="cls-39" d="M702.85,922.76s12.27,32.57-13.29,41.68-39.6-13-39.6-13l.67-.76S664.3,972,689.16,963.19,702.85,922.76,702.85,922.76Z"/><ellipse class="cls-43" cx="956.23" cy="525.8" rx="113.94" ry="14.2"/><path class="cls-44" d="M1043.87,493.86s12.19,35.34,34.73,29.24-4.26-31.68-4.26-31.68"/><path class="cls-45" d="M818.13,412.5s-17.26-27.47,5.28-55.3,57.41-11.62,57.41-11.62c2.82-9.86,16.55-16.55,32.76-19.72s31.35,7.75,31.35,7.75,14.79,10.21,18.67,17.26"/><path class="cls-45" d="M947.76,337.09s25.71-15.5,51.07,2.82,18,26.42,18,26.42,18.32-6.34,33.81,4.93,15.85,25,15.85,25,37.34-3.17,44.73,34.52-19,60.93-29.23,60.58-19.37-11.27-29.59-9.86-23.25,11.27-23.25,11.27-37.34,24-71.15,15.85c0,0-32.76,19.37-63.4,5.64,0,0-50,8.45-64.1-18,0,0-58.12-34.52-2.82-93.34"/><path class="cls-45" d="M833.19,422.22s-17.26-27.47,5.28-55.3,57.41-11.62,57.41-11.62c2.82-9.86,16.55-16.55,32.76-19.72S960,343.32,960,343.32s14.79,10.21,18.67,17.26"/><path class="cls-45" d="M963.51,345.44s25.71-15.5,51.07,2.82,18,26.42,18,26.42,18.32-6.34,33.81,4.93,15.85,25,15.85,25,37.34-3.17,44.73,34.52-19,60.93-29.23,60.58-19.37-11.27-29.59-9.86-23.25,11.27-23.25,11.27-37.34,24-71.15,15.85c0,0-32.76,19.37-63.4,5.64,0,0-50,8.45-64.1-18,0,0-58.12-34.52-2.82-93.34"/><path class="cls-45" d="M856.54,456.11S878.48,461.6,873,481.7c0,0,4.87-18.28,29.85-13.4s21.32,22.54,21.32,22.54,11-23.15,34.12-10.36,4.87,26.81,4.87,26.81"/><path class="cls-45" d="M993.63,478.66s-13.4-4.87-18.89,4.87-3,18.28,1.22,21.32"/><path class="cls-45" d="M1033.23,464.64s-1.83,23.15-26.2,14-15.84-23.76-15.84-23.76-6.7,28-38.38,17.06-13.4-31.68-13.4-31.68"/><path class="cls-45" d="M905.28,434.79s-8.76,2-12.25,8.82a13.73,13.73,0,0,0-1.15,8.84c2.44,14,28,19.5,41.43,8.53"/><path class="cls-45" d="M887.62,445.15s-18.28-13.4-3.66-26.81,26.2-7.92,26.2-7.92"/><path class="cls-45" d="M1050.29,454.28s-3.66-25.59-28.64-28.64-26.81,12.79-26.81,12.79,3.66-23.76-15.23-29.85-27.42.61-31.68,10.36"/><path class="cls-45" d="M912,420.17s-1.83-37.17,26.2-32.9S958.9,408,958.9,408"/><path class="cls-45" d="M1021.65,392.14s-2.44,28.64-24.37,21.32-17.06-25.59-17.06-25.59"/><path class="cls-45" d="M966.21,373.86s-21.32,16.45-7.31,24.37S979,397,979,397"/><path class="cls-45" d="M896.15,380.56s-15.23,15.23-4.87,24.37,24.37-7.31,24.37-7.31"/><path class="cls-45" d="M920.21,501.2s.18,20.78-9.89,21.4"/><path class="cls-45" d="M860.35,492.26s-12.73,4.47-12.73,15.14"/><path class="cls-45" d="M968.72,519.78s3.79-1,7.92-8.26"/><path class="cls-45" d="M929.16,525.29s-17.89,0-7.91-18.58c0,0-.69-4.13,6.88-5.5"/><path class="cls-45" d="M844.52,507.4s11-13.76,8.95-21.68"/><path class="cls-45" d="M1080.73,453.2s-19.26-1.54-16.18-30.82c0,0,0-8.48,10-10,0,0-4.75-10.11,7.64-7.75"/><path class="cls-45" d="M972.86,362.28s6.93-13.1-8.48-15.41"/><path class="cls-45" d="M892,364.59s2.31-15.41,10.79-19.26"/><path class="cls-45" d="M878.86,432.4s-54.71,19.26-51.62-43.15"/><path class="cls-45" d="M871.92,401.58s19.26-1.54,16.18,11.56"/><path class="cls-46" d="M862.58,424.82s-29.28,0-25.43-38.53"/><path class="cls-46" d="M1001.87,441s4.24-15.74,23-6.05,13.92,18.16,13.92,18.16"/><path class="cls-46" d="M978.87,348.43s13.31-6.66,27.23,3.63"/><path class="cls-46" d="M901.4,360.53s10.29-24.21,48.42-15.13"/><path class="cls-46" d="M920,417.46s-2-31.42,26-21.18"/><path class="cls-46" d="M953.45,420.88s28-14.35,32.11,9.56"/><path class="cls-46" d="M882.4,483.72s4.78-12.3,20.49-6.15,12.3,12.3,12.3,12.3"/><path class="cls-46" d="M933.64,490.56s10.25-9.56,20.49-2"/><path class="cls-46" d="M854.4,462.55s10.25,3.42,10.25,15.71"/><path class="cls-46" d="M1036.79,384.67s18.36-6.19,29.67,11.59"/><path class="cls-46" d="M863.52,360.28s-18.54,2.51-21.55,16"/><path class="cls-46" d="M1075,419.73s4.87-11.56,15.21-7.1"/><path class="cls-46" d="M987.34,397.42s1.62,9.53,17.44,9.94"/><path class="cls-46" d="M820,399s-7-23.3,15.82-44"/><path class="cls-46" d="M888.53,347.1s.88-9.23,13.19-10.55"/><polygon class="cls-45" points="1085.21 375.88 1114.94 333.59 1098.04 329.61 1131.23 289.15 1176.72 298.39 1141.99 332.85 1157.53 338.77 1085.21 375.88"/><polygon class="cls-45" points="1051.88 333.51 1071.59 305.48 1060.39 302.85 1082.38 276.03 1112.54 282.16 1089.52 305 1099.81 308.92 1051.88 333.51"/></svg>