<svg id="图层_1" data-name="图层 1" xmlns="http://www.w3.org/2000/svg" viewBox="0 0 128 128"><defs><style>.cls-1{fill:#fff;}.cls-2{fill:#999;}.cls-3{fill:none;stroke:#999;stroke-miterlimit:10;stroke-width:3px;}</style></defs><title>close</title><path class="cls-1" d="M63.5,124.5a60,60,0,1,1,60-60A60.07,60.07,0,0,1,63.5,124.5Z"/><path class="cls-2" d="M63.5,5A59.5,59.5,0,1,1,4,64.5,59.57,59.57,0,0,1,63.5,5m0-1A60.5,60.5,0,1,0,124,64.5,60.5,60.5,0,0,0,63.5,4Z"/><line class="cls-3" x1="29.97" y1="30.3" x2="94.34" y2="94.68"/><line class="cls-3" x1="95.2" y1="31.49" x2="29.38" y2="93.8"/><rect class="cls-1" x="58" y="59" width="8" height="8" transform="translate(-26.39 62.29) rotate(-45)"/><path class="cls-1" d="M62,58.76,66.24,63,62,67.24,57.76,63,62,58.76m0-2.83L54.93,63,62,70.07,69.07,63,62,55.93Z"/><rect class="cls-1" x="43" y="1" width="38" height="38"/><path class="cls-1" d="M80,2V38H44V2H80m2-2H42V40H82V0Z"/><rect class="cls-1" x="89" y="44" width="38" height="38"/><path class="cls-1" d="M126,45V81H90V45h36m2-2H88V83h40V43Z"/><rect class="cls-1" x="43" y="89" width="38" height="38"/><path class="cls-1" d="M80,90v36H44V90H80m2-2H42v40H82V88Z"/><rect class="cls-1" x="1" y="44" width="38" height="38"/><path class="cls-1" d="M38,45V81H2V45H38m2-2H0V83H40V43Z"/></svg>