<svg id="Layer_1" data-name="Layer 1" xmlns="http://www.w3.org/2000/svg" xmlns:xlink="http://www.w3.org/1999/xlink" viewBox="0 0 1280.94 659.83"><defs><style>.cls-1{fill:#64897b;}.cls-2,.cls-3{fill:#d4dedb;}.cls-2{opacity:0.29;}.cls-3{opacity:0.76;}.cls-4,.cls-6,.cls-7{fill:#234143;}.cls-19,.cls-5{fill:none;stroke-linecap:round;}.cls-5{stroke:#64897b;}.cls-19,.cls-26,.cls-27,.cls-5{stroke-miterlimit:10;}.cls-6{opacity:0.51;}.cls-7{opacity:0.71;}.cls-8{fill:url(#linear-gradient);}.cls-9{fill:url(#linear-gradient-2);}.cls-10{fill:url(#linear-gradient-3);}.cls-11{fill:#442325;opacity:0.68;}.cls-12{fill:#f3f4f5;}.cls-13{fill:url(#linear-gradient-4);}.cls-14{fill:url(#linear-gradient-5);}.cls-15{fill:url(#linear-gradient-6);}.cls-16{fill:url(#linear-gradient-7);}.cls-17{fill:url(#linear-gradient-8);}.cls-18{fill:url(#linear-gradient-9);}.cls-19{stroke:#533419;stroke-width:1.49px;}.cls-20{fill:url(#linear-gradient-10);}.cls-21{fill:url(#linear-gradient-11);}.cls-22{fill:#9f6231;}.cls-23{fill:url(#linear-gradient-12);}.cls-24{fill:url(#linear-gradient-13);}.cls-25{fill:url(#linear-gradient-14);}.cls-26,.cls-27{stroke:#fff;}.cls-26{fill:url(#radial-gradient);}.cls-27{fill:url(#radial-gradient-2);}.cls-28{fill:#353434;}.cls-29{fill:url(#linear-gradient-15);}.cls-30,.cls-35,.cls-41{fill:#edeced;}.cls-31{fill:url(#linear-gradient-16);}.cls-32{fill:#e4b322;}.cls-33{fill:#db888e;}.cls-34,.cls-42{fill:#fff;}.cls-34{opacity:0.44;}.cls-35{opacity:0.58;}.cls-36{fill:url(#linear-gradient-17);}.cls-37{fill:url(#linear-gradient-18);}.cls-38{fill:url(#linear-gradient-19);}.cls-39{fill:url(#linear-gradient-20);}.cls-40{fill:url(#linear-gradient-21);}.cls-41{opacity:0.39;}.cls-42{opacity:0.54;}.cls-43{fill:url(#linear-gradient-22);}.cls-44{fill:#0b7762;}.cls-45{fill:url(#linear-gradient-23);}.cls-46{fill:url(#linear-gradient-24);}.cls-47{fill:url(#linear-gradient-25);}</style><linearGradient id="linear-gradient" x1="-159.36" y1="536.64" x2="147.67" y2="536.64" gradientTransform="matrix(-1, 0, 0, 1, 1120.47, 0)" gradientUnits="userSpaceOnUse"><stop offset="0" stop-color="#452511"/><stop offset="0" stop-color="#462611"/><stop offset="0.06" stop-color="#4d2b14"/><stop offset="0.48" stop-color="#7a4924"/><stop offset="0.81" stop-color="#955b2d"/><stop offset="1" stop-color="#9f6231"/></linearGradient><linearGradient id="linear-gradient-2" x1="2200.59" y1="896.51" x2="2225.88" y2="896.51" gradientTransform="matrix(0.43, 0.9, 0.9, -0.43, -508.07, -1175.15)" xlink:href="#linear-gradient"/><linearGradient id="linear-gradient-3" x1="2214.47" y1="878.89" x2="2227.75" y2="878.89" gradientTransform="matrix(0.43, 0.9, 0.9, -0.43, -508.07, -1175.15)" gradientUnits="userSpaceOnUse"><stop offset="0" stop-color="#eacad9"/><stop offset="0.6" stop-color="#ece2e7"/><stop offset="1" stop-color="#edeced"/></linearGradient><linearGradient id="linear-gradient-4" x1="-94.01" y1="480.87" x2="-68.88" y2="480.87" xlink:href="#linear-gradient"/><linearGradient id="linear-gradient-5" x1="-80.21" y1="463.37" x2="-67.02" y2="463.37" gradientTransform="matrix(-1, 0, 0, 1, 1120.47, 0)" xlink:href="#linear-gradient-3"/><linearGradient id="linear-gradient-6" x1="1032.01" y1="1343.96" x2="1056.59" y2="1343.96" gradientTransform="matrix(-0.51, 0.86, 0.86, 0.51, 621.74, -1055.59)" xlink:href="#linear-gradient"/><linearGradient id="linear-gradient-7" x1="1045.51" y1="1326.8" x2="1058.42" y2="1326.8" gradientTransform="matrix(-0.51, 0.86, 0.86, 0.51, 621.74, -1055.59)" xlink:href="#linear-gradient-3"/><linearGradient id="linear-gradient-8" x1="2043.46" y1="-1025.19" x2="2099.37" y2="-1025.19" gradientTransform="translate(-1022.81 936.75) rotate(12.39)" xlink:href="#linear-gradient"/><linearGradient id="linear-gradient-9" x1="2074.17" y1="-1064.21" x2="2103.53" y2="-1064.21" gradientTransform="translate(-1022.81 936.75) rotate(12.39)" xlink:href="#linear-gradient-3"/><linearGradient id="linear-gradient-10" x1="1173.04" y1="-232.46" x2="1260.56" y2="-288.64" gradientTransform="matrix(0.99, 0.14, -0.13, 0.9, -262.28, 390.97)" xlink:href="#linear-gradient"/><linearGradient id="linear-gradient-11" x1="50.57" y1="24.82" x2="49.95" y2="53.38" gradientTransform="matrix(-0.89, -0.46, -0.46, 0.89, 1138.18, 474.57)" xlink:href="#linear-gradient"/><linearGradient id="linear-gradient-12" x1="-17.63" y1="302.13" x2="-17.63" y2="302.13" gradientTransform="matrix(-1, 0, 0, 1, 1120.47, 0)" gradientUnits="userSpaceOnUse"><stop offset="0" stop-color="#eed4a7"/><stop offset="0.3" stop-color="#eed1a3"/><stop offset="0.6" stop-color="#edc898"/><stop offset="0.88" stop-color="#ecba85"/><stop offset="1" stop-color="#ecb27a"/></linearGradient><linearGradient id="linear-gradient-13" x1="5.2" y1="485.31" x2="46.28" y2="222.76" xlink:href="#linear-gradient"/><linearGradient id="linear-gradient-14" x1="35.24" y1="476.87" x2="71.77" y2="368.88" gradientTransform="matrix(-1, 0, 0, 1, 1120.47, 0)" xlink:href="#linear-gradient-3"/><radialGradient id="radial-gradient" cx="39.67" cy="256.7" r="22.62" gradientTransform="matrix(-1, 0, 0, 1, 1120.47, 0)" gradientUnits="userSpaceOnUse"><stop offset="0" stop-color="#b9ae8d"/><stop offset="1" stop-color="#edeced"/></radialGradient><radialGradient id="radial-gradient-2" cx="104.21" cy="251.05" r="26.92" xlink:href="#radial-gradient"/><linearGradient id="linear-gradient-15" x1="32.47" y1="226.6" x2="-1.84" y2="208.65" xlink:href="#linear-gradient"/><linearGradient id="linear-gradient-16" x1="269.21" y1="702" x2="268.59" y2="730.56" gradientTransform="matrix(-1.24, 0.33, 0.26, 0.97, 1277.9, -295.28)" xlink:href="#linear-gradient"/><linearGradient id="linear-gradient-17" x1="68.29" y1="307.38" x2="78.99" y2="281.51" gradientTransform="matrix(-1, 0, 0, 1, 1120.47, 0)" gradientUnits="userSpaceOnUse"><stop offset="0.15" stop-color="#b38b14"/><stop offset="0.86" stop-color="#ffe24c"/></linearGradient><linearGradient id="linear-gradient-18" x1="78.82" y1="297.96" x2="86.25" y2="268.35" xlink:href="#linear-gradient-17"/><linearGradient id="linear-gradient-19" x1="76.97" y1="266.26" x2="77.34" y2="266.26" gradientTransform="matrix(-1, 0, 0, 1, 1121.41, 0)" xlink:href="#linear-gradient"/><linearGradient id="linear-gradient-20" x1="250.81" y1="-385.32" x2="251.19" y2="-385.32" gradientTransform="matrix(0, -1, -1, 0, 655.5, 516.43)" xlink:href="#linear-gradient"/><linearGradient id="linear-gradient-21" x1="460.8" y1="-123.36" x2="548.32" y2="-179.54" gradientTransform="matrix(-0.99, 0.14, 0.13, 0.9, 1683.59, 390.97)" xlink:href="#linear-gradient"/><linearGradient id="linear-gradient-22" x1="178.96" y1="580.31" x2="179.76" y2="516.33" gradientTransform="matrix(-1, 0, 0, 1, 1120.47, 0)" gradientUnits="userSpaceOnUse"><stop offset="0.07" stop-color="#0b7762"/><stop offset="0.67" stop-color="#678f72"/></linearGradient><linearGradient id="linear-gradient-23" x1="1068.52" y1="1262.72" x2="1069.32" y2="1198.74" gradientTransform="matrix(-0.45, 0.89, 0.89, 0.45, 471.58, -940.44)" xlink:href="#linear-gradient-22"/><linearGradient id="linear-gradient-24" x1="1642.29" y1="-973.24" x2="1642.58" y2="-996.73" gradientTransform="translate(-7.49 -1040.59) rotate(86.39)" xlink:href="#linear-gradient-22"/><linearGradient id="linear-gradient-25" x1="71" y1="-81.86" x2="71.62" y2="-131.13" gradientTransform="matrix(-0.82, -0.57, -0.57, 0.82, 942.04, 641.31)" xlink:href="#linear-gradient-22"/></defs><title>first</title><rect class="cls-1" x="0.94" width="1280" height="659"/><circle class="cls-2" cx="210.94" cy="189" r="15"/><circle class="cls-3" cx="210.94" cy="189" r="9"/><circle class="cls-2" cx="443.94" cy="580" r="15"/><circle class="cls-3" cx="443.94" cy="580" r="9"/><circle class="cls-2" cx="183.94" cy="440" r="9"/><circle class="cls-3" cx="183.94" cy="440" r="5.4"/><circle class="cls-2" cx="728.94" cy="160" r="9"/><circle class="cls-3" cx="728.94" cy="160" r="5.4"/><circle class="cls-2" cx="1195.94" cy="172" r="17"/><circle class="cls-3" cx="1195.94" cy="172" r="10.2"/><circle class="cls-2" cx="943.94" cy="180" r="10"/><circle class="cls-3" cx="943.94" cy="180" r="6"/><circle class="cls-2" cx="1021.94" cy="605" r="10"/><circle class="cls-3" cx="1021.94" cy="605" r="6"/><circle class="cls-2" cx="899.94" cy="457" r="6"/><circle class="cls-3" cx="899.94" cy="457" r="3.6"/><circle class="cls-2" cx="39.94" cy="155" r="6"/><circle class="cls-3" cx="39.94" cy="155" r="3.6"/><path class="cls-4" d="M-.44,366.2C5.21,353.29,3,338.49,4.75,324.52S15.12,295,29.6,294.31a13.81,13.81,0,0,1,8.5,2.09c6.29,4.34,5.51,13.77,2.14,20.43s-8.69,12.68-9.57,20.09c-.24,2,0,4.34,1.74,5.49,2.87,1.92,6.44-1.14,8.18-4,8.92-14.77,10.37-33,19.35-47.71,2.86-4.7,6.71-9.15,12-11.09S84,278.95,87,283.67c7,11.34-13.45,25.2-7.12,36.91l16.4-19.39c9.34-11,18.93-22.3,31.52-29.73,3.46-2,7.24-3.81,11.29-4.16,7.32-.64,14.61,3.68,18.39,9.84s4.35,13.84,2.62,20.76a36,36,0,0,1-19.78,23.6c-13.69,6.26-29.8,3.73-44.85,5.55-3.38.41-7.41,1.65-8,4.9s2.44,5.81,5.44,7.12c10.77,4.73,23.46,1.09,34.91,3.88,13.41,3.27,23.7,16.24,23.5,29.63-.05,3.34-.8,6.89-3.24,9.23a13.44,13.44,0,0,1-5.65,2.91,32.52,32.52,0,0,1-23.68-2.33c-8.22-4.25-14.05-11.73-20.53-18.24s-14.71-12.53-24-12.31a4.86,4.86,0,0,0-2.83.73c-1.92,1.45-1,4.43.23,6.5,11.06,18.54,34.57,30.76,37.37,51.94.47,3.51.11,7.5-2.59,9.84-4.69,4.07-12.21.26-16.51-4.28-12.9-13.61-18.44-34-35-43.2-3.29-1.82-8.21-2.72-10.18.37-1.33,2.09-.46,4.81.54,7.09A91.92,91.92,0,0,0,58.7,402.64c3.51,4.23,7.69,9.1,6.46,14.36-1.1,4.71-6.46,7.52-11.44,7.36S44.15,421.73,40,419c-9.34-6-18.1-13.73-29-15.92a3.49,3.49,0,0,0-2.26.08A2.88,2.88,0,0,0,7.4,405c-2.34,7,4.64,13.35,10.33,18.28s10.91,13.7,5.63,18.94c-4,3.93-18.42.64-23.36-2.17" transform="translate(0.94)"/><path class="cls-5" d="M151.5,287.5s-99,45-151.94,111.58" transform="translate(0.94)"/><path class="cls-5" d="M24,315s-15.65,31.62-1.83,59.31" transform="translate(0.94)"/><path class="cls-5" d="M76,293s-21.39,29.58-17.2,50.29" transform="translate(0.94)"/><path class="cls-5" d="M73.54,332.68S119,372,138,369" transform="translate(0.94)"/><path class="cls-5" d="M43.13,355.61S78,369,99,409" transform="translate(0.94)"/><path class="cls-5" d="M12.48,384.16s29,28.34,41,28.34" transform="translate(0.94)"/><path class="cls-4" d="M1145.44,659.33c10.38-4.54,22.28-2.79,33.51-4.18s23.71-8.34,24.29-20a11.1,11.1,0,0,0-1.68-6.84c-3.49-5.06-11.07-4.43-16.43-1.72s-10.2,7-16.15,7.69c-1.6.19-3.49,0-4.41-1.4-1.54-2.3.92-5.18,3.24-6.58,11.87-7.17,26.52-8.34,38.36-15.56,3.78-2.3,7.35-5.39,8.92-9.62s.5-9.75-3.3-12.1c-9.12-5.65-20.26,10.82-29.68,5.72l15.59-13.19c8.88-7.51,17.93-15.22,23.9-25.34a21.89,21.89,0,0,0,3.35-9.08c.51-5.88-3-11.75-7.91-14.79s-11.12-3.49-16.69-2.11a28.91,28.91,0,0,0-19,15.9c-5,11-3,24-4.46,36.06-.33,2.72-1.33,6-3.94,6.47s-4.67-2-5.73-4.37c-3.8-8.66-.88-18.86-3.12-28.07-2.63-10.78-13.05-19.05-23.82-18.89-2.69,0-5.54.64-7.42,2.6a10.81,10.81,0,0,0-2.34,4.54,26.15,26.15,0,0,0,1.87,19c3.42,6.61,9.43,11.3,14.67,16.51s10.08,11.82,9.9,19.27a3.91,3.91,0,0,1-.59,2.28c-1.16,1.54-3.56.81-5.22-.18-14.9-8.89-24.73-27.79-41.76-30-2.82-.38-6-.09-7.91,2.08-3.27,3.77-.21,9.82,3.44,13.28,10.94,10.37,27.37,14.83,34.73,28.12,1.46,2.64,2.19,6.6-.3,8.19-1.68,1.07-3.87.37-5.7-.43a73.9,73.9,0,0,1-17.55-10.85c-3.4-2.82-7.32-6.18-11.54-5.19-3.78.88-6,5.2-5.92,9.2s2.11,7.7,4.28,11c4.84,7.51,11,14.55,12.8,23.35a2.81,2.81,0,0,1-.07,1.82,2.31,2.31,0,0,1-1.41,1c-5.61,1.88-10.73-3.73-14.69-8.3s-11-8.77-15.22-4.53c-3.16,3.19-.52,14.81,1.74,18.78" transform="translate(0.94)"/><path class="cls-5" d="M1208.71,537.17s-36.18,79.59-89.71,122.16" transform="translate(0.94)"/><path class="cls-5" d="M1186.6,639.68s-25.42,12.58-47.68,1.47" transform="translate(0.94)"/><path class="cls-5" d="M1204.29,597.87s-23.78,17.2-40.43,13.82" transform="translate(0.94)"/><path class="cls-5" d="M1172.39,599.85s-31.61-36.55-29.2-51.83" transform="translate(0.94)"/><path class="cls-5" d="M1154,624.3s-10.77-28-42.92-44.92" transform="translate(0.94)"/><path class="cls-5" d="M1131,648.94s-22.79-23.33-22.79-33" transform="translate(0.94)"/><path class="cls-6" d="M1044.17,658.87c5.83-2.55,12.51-1.57,18.81-2.34s13.31-4.68,13.63-11.21a6.23,6.23,0,0,0-.94-3.84c-2-2.84-6.21-2.49-9.22-1s-5.73,3.92-9.07,4.32a2.54,2.54,0,0,1-2.48-.79c-.87-1.29.52-2.91,1.82-3.69,6.66-4,14.89-4.68,21.53-8.73a11.28,11.28,0,0,0,5-5.4c.88-2.37.28-5.47-1.85-6.79-5.12-3.17-11.37,6.07-16.66,3.21l8.75-7.4c5-4.22,10.06-8.55,13.42-14.23a12.29,12.29,0,0,0,1.88-5.1,9.19,9.19,0,0,0-4.44-8.3,12.32,12.32,0,0,0-9.37-1.18,16.23,16.23,0,0,0-10.65,8.93c-2.83,6.18-1.68,13.45-2.5,20.24-.18,1.52-.75,3.34-2.21,3.63s-2.62-1.1-3.21-2.46c-2.13-4.86-.49-10.59-1.75-15.76a14.12,14.12,0,0,0-13.37-10.61,5.78,5.78,0,0,0-4.16,1.46,6.07,6.07,0,0,0-1.31,2.55,14.68,14.68,0,0,0,1.05,10.69c1.92,3.71,5.3,6.34,8.23,9.27s5.66,6.64,5.56,10.82a2.19,2.19,0,0,1-.33,1.28c-.65.87-2,.45-2.93-.1-8.37-5-13.88-15.6-23.44-16.87-1.58-.21-3.39,0-4.44,1.17-1.83,2.12-.12,5.51,1.93,7.45,6.14,5.82,15.37,8.32,19.5,15.78.82,1.48,1.23,3.7-.17,4.6-.94.6-2.17.21-3.2-.24a41.49,41.49,0,0,1-9.85-6.09c-1.91-1.59-4.11-3.47-6.48-2.92-2.12.49-3.4,2.92-3.32,5.16a12.58,12.58,0,0,0,2.4,6.2c2.72,4.21,6.2,8.17,7.18,13.11a1.58,1.58,0,0,1,0,1,1.3,1.3,0,0,1-.79.57c-3.15,1.06-6-2.1-8.25-4.66s-6.19-4.92-8.55-2.54c-1.77,1.79-.29,8.32,1,10.54" transform="translate(0.94)"/><path class="cls-5" d="M1079.69,590.29s-20.31,44.68-50.36,68.58" transform="translate(0.94)"/><path class="cls-5" d="M1067.28,647.83s-14.27,7.06-26.77.82" transform="translate(0.94)"/><path class="cls-5" d="M1077.21,624.36s-13.35,9.65-22.7,7.76" transform="translate(0.94)"/><path class="cls-5" d="M1059.3,625.48s-17.75-20.52-16.39-29.1" transform="translate(0.94)"/><path class="cls-5" d="M1049,639.2s-6-15.74-24.1-25.22" transform="translate(0.94)"/><path class="cls-5" d="M1036.07,653s-12.79-13.1-12.79-18.51" transform="translate(0.94)"/><path class="cls-7" d="M-.44,562.2C5.21,549.29,3,534.49,4.75,520.52S15.12,491,29.6,490.31a13.81,13.81,0,0,1,8.5,2.09c6.29,4.34,5.51,13.77,2.14,20.43s-8.69,12.68-9.57,20.09c-.24,2,0,4.34,1.74,5.49,2.87,1.92,6.44-1.14,8.18-4,8.92-14.77,10.37-33,19.35-47.71,2.86-4.7,6.71-9.15,12-11.09S84,474.95,87,479.67c7,11.34-13.45,25.2-7.12,36.91l16.4-19.39c9.34-11,18.93-22.3,31.52-29.73,3.46-2,7.24-3.81,11.29-4.16,7.32-.64,14.61,3.68,18.39,9.84s4.35,13.84,2.62,20.76a36,36,0,0,1-19.78,23.6c-13.69,6.26-29.8,3.73-44.85,5.55-3.38.41-7.41,1.65-8,4.9s2.44,5.81,5.44,7.12c10.77,4.73,23.46,1.09,34.91,3.88,13.41,3.27,23.7,16.24,23.5,29.63-.05,3.34-.8,6.89-3.24,9.23a13.44,13.44,0,0,1-5.65,2.91,32.52,32.52,0,0,1-23.68-2.33c-8.22-4.25-14.05-11.73-20.53-18.24s-14.71-12.53-24-12.31a4.86,4.86,0,0,0-2.83.73c-1.92,1.45-1,4.43.23,6.5,11.06,18.54,34.57,30.76,37.37,51.94.47,3.51.11,7.5-2.59,9.84-4.69,4.07-12.21.26-16.51-4.28-12.9-13.61-18.44-34-35-43.2-3.29-1.82-8.21-2.72-10.18.37-1.33,2.09-.46,4.81.54,7.09A91.92,91.92,0,0,0,58.7,598.64c3.51,4.23,7.69,9.1,6.46,14.36-1.1,4.71-6.46,7.52-11.44,7.36S44.15,617.73,40,615c-9.34-6-18.1-13.73-29-15.92a3.49,3.49,0,0,0-2.26.08A2.88,2.88,0,0,0,7.4,601c-2.34,7,4.64,13.35,10.33,18.28s10.91,13.7,5.63,18.94c-4,3.93-18.42.64-23.36-2.17" transform="translate(0.94)"/><path class="cls-5" d="M151.5,483.5s-99,45-151.94,111.58" transform="translate(0.94)"/><path class="cls-5" d="M24,511s-15.65,31.62-1.83,59.31" transform="translate(0.94)"/><path class="cls-5" d="M76,489s-21.39,29.58-17.2,50.29" transform="translate(0.94)"/><path class="cls-5" d="M73.54,528.68S119,568,138,565" transform="translate(0.94)"/><path class="cls-5" d="M43.13,551.61S78,565,99,605" transform="translate(0.94)"/><path class="cls-5" d="M12.48,580.16s29,28.34,41,28.34" transform="translate(0.94)"/><path class="cls-8" d="M1279.83,570.75l-295.44-45a11.6,11.6,0,0,1-11.6-11.6h0a11.6,11.6,0,0,1,11.6-11.6h295.44Z" transform="translate(0.94)"/><path class="cls-9" d="M1241.15,461.37a13.05,13.05,0,0,0,.93-1.67l-1-6.63,2.28,3.95s9.56-17.54,10.68-20c1.25-2.68,3.54-4,.12-7.73,0,0-4.27-3.15-8.18,4.83-3.54,7.22-8.61,15-12.27,18.58l5.24.21Z" transform="translate(0.94)"/><path class="cls-10" d="M1234.12,452.08a13.6,13.6,0,0,1-1.11,1c-3.68,2.85-9.85,6-6.37,11.65,3.18,5.12,11.26,1.66,15-4l-2.22-8.12Z" transform="translate(0.94)"/><path class="cls-11" d="M1227.26,463.36s19.36-13.53,25.84-34.39l.55,0S1248.29,448.74,1227.26,463.36Z" transform="translate(0.94)"/><path class="cls-12" d="M1253.45,429.26a.25.25,0,0,1-.33-.12.24.24,0,0,1,0-.18h0c.58-2.47,3.46-7.67,3.36-9.57,0,0,1.27-1.17,1.61,0s-4,8.57-4.43,9.55h-.07A.24.24,0,0,1,1253.45,429.26Z" transform="translate(0.94)"/><path class="cls-13" d="M1204.81,475.49a49.23,49.23,0,0,1-4.54-9l-2.41,4.62-8.51-1.56a13,13,0,0,0,1.11,1.54l6.39,1.88-4.51.38s11.72,16,13.41,18.05c1.88,2.26,2.13,4.89,6.89,3.38,0,0,4.64-2.51-.88-9.4-2-2.54-4-5.35-5.83-8.11l-2.21,4.87-.21-.28Z" transform="translate(0.94)"/><path class="cls-14" d="M1200.68,467.18a13.52,13.52,0,0,1-.41-1.41c-1-4.51-1.25-11.41-7.77-10.66-6,.69-6.26,9.42-2.74,15.13l8.24,1.45Z" transform="translate(0.94)"/><path class="cls-11" d="M1193.45,456.24s4,23.13,20,37.79l-.25.48S1197.69,481.33,1193.45,456.24Z" transform="translate(0.94)"/><path class="cls-12" d="M1213,494.22a.25.25,0,0,1,.25-.25.24.24,0,0,1,.16.06h0c2,1.56,5.43,6.35,7.17,7.07,0,0,.51,1.64-.72,1.43s-6-7.2-6.71-8l0-.06A.24.24,0,0,1,1213,494.22Z" transform="translate(0.94)"/><path class="cls-15" d="M1238,524.57a48.17,48.17,0,0,1-9.83-.69l2.67,4.34-5.57,6.37a12.69,12.69,0,0,0,1.85-.16L1232,530l-1.95,4s19.34-1.82,21.89-2.23c2.84-.45,5.18.66,6.3-4.1,0,0,.22-5.15-8.34-4-3.15.43-6.52.72-9.74.83l3,4.3-.34,0Z" transform="translate(0.94)"/><path class="cls-16" d="M1222.37,526.36l-2-5c2.38.23,5,1.42,7.17,2.14a13.23,13.23,0,0,0,1.39.37l2.44,4.51-5.34,6.2c-6.56.09-13.75-4.54-11.34-9.89a5.06,5.06,0,0,1,5.16-3.37s2.31,4.83,2.33,5" transform="translate(0.94)"/><path class="cls-11" d="M1216.17,524.48s21.43,8.26,41.77,2.16l.28.45S1239.38,533.49,1216.17,524.48Z" transform="translate(0.94)"/><path class="cls-12" d="M1257.89,527.07a.24.24,0,0,1-.08-.33.24.24,0,0,1,.14-.1h0c2.3-.87,8.06-1.38,9.54-2.48,0,0,1.63.39.85,1.32s-9.07,1.45-10.1,1.61l0-.05A.24.24,0,0,1,1257.89,527.07Z" transform="translate(0.94)"/><path class="cls-17" d="M1216.64,366.95c6.12-6.35,11.23-12.51,14.17-17.36l3,11.19,19.24.68a28.86,28.86,0,0,1-3.15,2.83l-14.79,1,9.63,3s-33.13,29.22-37.78,32.83c-5.16,4-7,9.61-16.6,4.06,0,0-8.88-7.66,6.4-20,5.63-4.55,11.35-9.7,16.55-14.85l2.48,11.63.59-.52Z" transform="translate(0.94)"/><path class="cls-18" d="M1244,343.74l-5.23-11c-3.32,4.3-5.4,10.48-7.6,15.22a30.08,30.08,0,0,1-1.55,2.87l3.67,11.08,18.6.79c10.38-10.73,13.87-29.86,1.27-34.19-6.27-2.16-10.48-.27-13.62,3.3,0,0,4.4,11.34,4.65,11.65" transform="translate(0.94)"/><path class="cls-11" d="M1250.53,330.53s-19.67,48.38-61.45,72.59l.31,1.17S1229.34,383,1250.53,330.53Z" transform="translate(0.94)"/><path class="cls-12" d="M1189.89,403.73a.55.55,0,0,0-.42-.65.54.54,0,0,0-.38.06v0c-5,2.46-14.84,11.22-19,11.94,0,0-1.9,3.32.87,3.46s16.52-12.79,18.41-14.24l0-.14A.54.54,0,0,0,1189.89,403.73Z" transform="translate(0.94)"/><path class="cls-19" d="M965.77,283.64s5.43,17.92-4.34,17.92" transform="translate(0.94)"/><path class="cls-20" d="M1024,311c-11.21-8.74-35.72-13.38-48.71-30.25-28-36.29-35.63,5.6-28.39,27.73s23.5,53.73,47.38,67.61S1050.51,331.71,1024,311Z" transform="translate(0.94)"/><path class="cls-21" d="M1069.22,457.8l-6.34,12.07a18.33,18.33,0,0,0,7.69,24.68h0a18.33,18.33,0,0,0,24.68-7.69l6.07-11.56" transform="translate(0.94)"/><path class="cls-22" d="M1028.45,194.61s-17.06-5.87-22-15-23.28,27.08,10.77,38.15" transform="translate(0.94)"/><path class="cls-23" d="M1138.1,302.13" transform="translate(0.94)"/><path class="cls-24" d="M1066.92,473.45c-69.7-36.66-74.22-146.24-74.22-146.24V243.7a72.7,72.7,0,0,1,72.7-72.7h0a72.7,72.7,0,0,1,72.7,72.7v24.89s-.41,25.16,0,33.54c2.11,43.27,28.6,94.66,28.6,94.66s3.83,11.3,9.37,5.76,35.09-25.86,20.32,13.85S1142.83,513.38,1066.92,473.45Z" transform="translate(0.94)"/><path class="cls-25" d="M1101.95,408.27V383.38a72.7,72.7,0,0,0-72.7-72.7h0c-12.89,0-26.66,3.35-37.16,9.24,0,0-1.1,101.57,63,145.71C1126.72,514.91,1101.95,408.27,1101.95,408.27Z" transform="translate(0.94)"/><path class="cls-26" d="M1049.95,260.59c0,17,9.46,24,26.49,24s35.2-7,35.2-24a30.85,30.85,0,1,0-61.7,0Z" transform="translate(0.94)"/><path class="cls-27" d="M994.88,225.88c2.15-4.1,9.91-4.11,14.86-4.11a30.85,30.85,0,0,1,30.85,30.85c0,17-13.67,27.34-30.71,27.34-6.39,0-12.46,1.57-17.39-1.76C992.49,278.2,990.17,234.86,994.88,225.88Z" transform="translate(0.94)"/><path class="cls-28" d="M1000.73,252.9c0,6,4.77,6.65,10.72,6.65s10.83-.7,10.83-6.65a10.77,10.77,0,1,0-21.55,0Z" transform="translate(0.94)"/><path class="cls-28" d="M1070,261.18c0,6,4.77,6.65,10.72,6.65s10.83-.7,10.83-6.65a10.77,10.77,0,0,0-21.55,0Z" transform="translate(0.94)"/><path class="cls-29" d="M1124.25,223.88c34-11.07,15.66-47.31,10.77-38.15s-22,15-22,15-7.33,9.46,0,16.79S1124.25,223.88,1124.25,223.88Z" transform="translate(0.94)"/><path class="cls-30" d="M1166.7,396.79" transform="translate(0.94)"/><path class="cls-31" d="M1102,471.14l3.54,13.17c2.61,9.71,14.94,14.91,27.4,11.55h0c12.46-3.35,20.51-14,17.9-23.74l-3.39-12.61" transform="translate(0.94)"/><rect class="cls-32" x="1074.15" y="487.13" width="7.76" height="23.29" rx="1.72" ry="1.72" transform="translate(2157 997.56) rotate(-180)"/><rect class="cls-32" x="1065.83" y="487.13" width="7.76" height="23.29" rx="1.72" ry="1.72" transform="translate(2140.36 997.56) rotate(-180)"/><rect class="cls-32" x="1082.47" y="487.13" width="7.76" height="23.29" rx="1.72" ry="1.72" transform="translate(2173.64 997.56) rotate(180)"/><rect class="cls-32" x="1122.94" y="489.88" width="7.76" height="23.29" rx="1.72" ry="1.72" transform="translate(2254.58 1003.05) rotate(180)"/><rect class="cls-32" x="1114.62" y="489.88" width="7.76" height="23.29" rx="1.72" ry="1.72" transform="translate(2237.94 1003.05) rotate(-180)"/><rect class="cls-32" x="1131.26" y="489.88" width="7.76" height="23.29" rx="1.72" ry="1.72" transform="translate(2271.23 1003.05) rotate(180)"/><path class="cls-28" d="M1061.23,339.93c1.09-.14,1.24,3.59,3.34,5.16,3.27,2.44,3.2,6.53.61,7.74-2.26,1-4.2-1.5-4.9-3.51C1059.28,346.42,1059.79,340.11,1061.23,339.93Z" transform="translate(0.94)"/><path class="cls-28" d="M1055.37,363.28c.73-.09.83,2.4,2.24,3.46,2.19,1.64,2.15,4.38.41,5.18-1.51.7-2.82-1-3.28-2.35C1054.07,367.63,1054.41,363.4,1055.37,363.28Z" transform="translate(0.94)"/><path class="cls-28" d="M1073.46,363.28c.73-.09.83,2.4,2.24,3.46,2.19,1.64,2.15,4.38.41,5.18-1.51.7-2.82-1-3.28-2.35C1072.16,367.63,1072.5,363.4,1073.46,363.28Z" transform="translate(0.94)"/><path class="cls-28" d="M1036.07,363.39c.73-.09.83,2.4,2.24,3.46,2.19,1.64,2.15,4.38.41,5.18-1.51.7-2.82-1-3.28-2.35C1034.77,367.74,1035.11,363.52,1036.07,363.39Z" transform="translate(0.94)"/><path class="cls-28" d="M1018.75,364.19c.73-.09.83,2.4,2.24,3.46,2.19,1.64,2.15,4.38.41,5.18-1.51.7-2.82-1-3.28-2.35C1017.45,368.54,1017.79,364.31,1018.75,364.19Z" transform="translate(0.94)"/><path class="cls-28" d="M1006.89,367.16c.47-.06.54,1.56,1.45,2.24,1.42,1.06,1.39,2.84.26,3.37s-1.83-.65-2.13-1.53C1006,370,1006.26,367.24,1006.89,367.16Z" transform="translate(0.94)"/><path class="cls-28" d="M1030.53,383.15c.59-.07.67,1.94,1.8,2.78,1.76,1.32,1.73,3.52.33,4.18-1.22.57-2.27-.81-2.64-1.9C1029.48,386.66,1029.76,383.25,1030.53,383.15Z" transform="translate(0.94)"/><path class="cls-28" d="M1015.61,385.53c.35,0,.4,1.16,1.08,1.66,1.05.79,1,2.11.2,2.5s-1.36-.48-1.58-1.13C1015,387.62,1015.15,385.59,1015.61,385.53Z" transform="translate(0.94)"/><path class="cls-28" d="M1049.1,382.2c.59-.07.67,1.94,1.8,2.78,1.76,1.32,1.73,3.52.33,4.18-1.22.57-2.27-.81-2.64-1.9C1048.05,385.7,1048.33,382.3,1049.1,382.2Z" transform="translate(0.94)"/><path class="cls-28" d="M1067.19,382.2c.59-.07.67,1.94,1.8,2.78,1.76,1.32,1.73,3.52.33,4.18-1.22.57-2.27-.81-2.64-1.9C1066.14,385.7,1066.42,382.3,1067.19,382.2Z" transform="translate(0.94)"/><path class="cls-28" d="M1026.24,403.31c.59-.07.67,1.94,1.8,2.78,1.76,1.32,1.73,3.52.33,4.18-1.22.57-2.27-.81-2.64-1.9C1025.19,406.81,1025.46,403.41,1026.24,403.31Z" transform="translate(0.94)"/><path class="cls-28" d="M1044.81,402.36c.59-.07.67,1.94,1.8,2.78,1.76,1.32,1.73,3.52.33,4.18-1.22.57-2.27-.81-2.64-1.9C1043.76,405.86,1044,402.45,1044.81,402.36Z" transform="translate(0.94)"/><path class="cls-28" d="M1062.9,402.36c.59-.07.67,1.94,1.8,2.78,1.76,1.32,1.73,3.52.33,4.18-1.22.57-2.27-.81-2.64-1.9C1061.85,405.86,1062.12,402.45,1062.9,402.36Z" transform="translate(0.94)"/><path class="cls-28" d="M1039,422.14c.59-.07.67,1.94,1.8,2.78,1.76,1.32,1.73,3.52.33,4.18-1.22.57-2.27-.81-2.64-1.9C1038,425.64,1038.26,422.24,1039,422.14Z" transform="translate(0.94)"/><path class="cls-28" d="M1057.12,422.14c.59-.07.67,1.94,1.8,2.78,1.76,1.32,1.73,3.52.33,4.18-1.22.57-2.27-.81-2.64-1.9C1056.07,425.64,1056.35,422.24,1057.12,422.14Z" transform="translate(0.94)"/><path class="cls-28" d="M1041.52,335.95c1.09-.14,1.24,3.59,3.34,5.16,3.27,2.44,3.2,6.53.61,7.74-2.26,1-4.2-1.5-4.9-3.51C1039.57,342.44,1040.09,336.13,1041.52,335.95Z" transform="translate(0.94)"/><path class="cls-28" d="M1020.62,335c1.09-.14,1.24,3.59,3.34,5.16,3.27,2.44,3.2,6.53.61,7.74-2.26,1-4.2-1.5-4.9-3.51C1018.67,341.45,1019.19,335.14,1020.62,335Z" transform="translate(0.94)"/><path class="cls-28" d="M1004,341.48c.73-.09.83,2.42,2.25,3.47,2.2,1.64,2.16,4.4.41,5.21-1.52.71-2.83-1-3.3-2.36C1002.71,345.85,1003.05,341.6,1004,341.48Z" transform="translate(0.94)"/><ellipse class="cls-33" cx="1036.82" cy="289.43" rx="5.82" ry="4.05" transform="translate(31.04 670.58) rotate(-36.33)"/><circle class="cls-34" cx="1041.72" cy="272.97" r="6.01"/><circle class="cls-35" cx="1087.62" cy="256.03" r="2.25"/><circle class="cls-35" cx="1016.79" cy="247.53" r="2.25"/><path class="cls-36" d="M1036.42,284.11s-4.88,4.25-4.88,6.76c0,2.17,2.32,3,3,3.16a.68.68,0,0,1,.17,0c2.5,1.09,5-3.34,5-3.34,1.54-4.37,6.41-8.29,6.41-8.29a5.25,5.25,0,0,1,3.93,1.24l1-9.64s2.66,6.78,4.92,7.66c3,1.17,4.18,3.78,1.66,5.4-1.26.81-5.12,3-7.46,5.81a14.86,14.86,0,0,1-2,2.85c-3.07,3.38-7.12,4.86-10,4-1.89-.31-7-1.45-7-4.78C1031.07,290.87,1029.65,289.14,1036.42,284.11Z" transform="translate(0.94)"/><path class="cls-37" d="M1037,264.34a15.06,15.06,0,0,1,2.34.2,7.4,7.4,0,0,0,2-3.47c.27-1.89,3-2.61,3.78-1.35s-.46,5,.38,7.28a15,15,0,0,1,6.49,12.36c0,3.1-.18,6.74-2.55,8.38-3.19,2.2-9.11,2.16-15.38-1.88,0,0-7.27-2.61-8.57,3.18-.75,3.34-3.54-6-3.54-9.68A15,15,0,0,1,1037,264.34Z" transform="translate(0.94)"/><path class="cls-32" d="M979.75,255.6" transform="translate(0.94)"/><ellipse class="cls-38" cx="1044.26" cy="266.26" rx="0.19" ry="0.59"/><ellipse class="cls-39" cx="1040.82" cy="265.43" rx="0.59" ry="0.19" transform="translate(118.11 813.71) rotate(-45)"/><path class="cls-40" d="M1116.47,311c11.21-8.74,35.72-13.38,48.71-30.25,28-36.29,35.63,5.6,28.39,27.73s-23.5,53.73-47.38,67.61S1089.91,331.71,1116.47,311Z" transform="translate(0.94)"/><rect class="cls-41" x="1133.15" y="491.64" width="3.94" height="12.69" rx="0.87" ry="0.87" transform="translate(2271.2 995.97) rotate(180)"/><rect class="cls-41" x="1125.1" y="491.64" width="3.94" height="12.69" rx="0.87" ry="0.87" transform="translate(2255.08 995.97) rotate(-180)"/><rect class="cls-41" x="1116.87" y="491.64" width="3.94" height="12.69" rx="0.87" ry="0.87" transform="translate(2238.62 995.97) rotate(180)"/><rect class="cls-41" x="1084.21" y="488.52" width="3.94" height="12.69" rx="0.87" ry="0.87" transform="translate(2173.3 989.73) rotate(-180)"/><rect class="cls-41" x="1076.15" y="488.52" width="3.94" height="12.69" rx="0.87" ry="0.87" transform="translate(2157.19 989.73) rotate(-180)"/><rect class="cls-41" x="1067.92" y="488.52" width="3.94" height="12.69" rx="0.87" ry="0.87" transform="translate(2140.73 989.73) rotate(-180)"/><path class="cls-42" d="M1040.77,267s-2.81-.18-3.64-1.11-6.73-.21-11.06,4.88c-3,3.5-2.61,5.27-2,5.68s5-6.13,10.78-5.62S1043.9,268.37,1040.77,267Z" transform="translate(0.94)"/><path class="cls-43" d="M909,538.48a32,32,0,1,0,64,0,16.93,16.93,0,0,0-1-4.5c-1-2.78-3.12-5.81-7.37-5.76-7.83.08-13.06,11.44-25.44,12.07s-24.42-2-26.74-6.76S909,538.48,909,538.48Z" transform="translate(0.94)"/><path class="cls-44" d="M977.21,525.55s-6.79,3.44-7.08,6.31a1.08,1.08,0,0,1-1.43-1.15c0-1.53,4.5-8.8,7-9.37S978.93,525.16,977.21,525.55Z" transform="translate(0.94)"/><path class="cls-44" d="M909,538.48s8.6,34.53,35.39,27.35,25.74-34,25.74-34l-1-.25S970,557.5,944,564.55,909,538.48,909,538.48Z" transform="translate(0.94)"/><path class="cls-45" d="M1073,589.64a32,32,0,0,0,28.54-57.26,16.93,16.93,0,0,0-4.46-1.14c-2.94-.32-6.59.2-8.45,4-3.43,7,4.42,16.79-.55,28.15s-12.68,21-18,20.92S1073,589.64,1073,589.64Z" transform="translate(0.94)"/><path class="cls-44" d="M1091.85,522.83s.05,7.61,2.49,9.15a1.08,1.08,0,0,1-1.67.77c-1.37-.68-5.87-7.95-5.27-10.43S1092.27,521.11,1091.85,522.83Z" transform="translate(0.94)"/><path class="cls-44" d="M1073,589.64s34.74,7.71,40.27-19.47-18.92-38.2-18.92-38.2l-.67.79s23.57,10.75,18.27,37.18S1073,589.64,1073,589.64Z" transform="translate(0.94)"/><path class="cls-46" d="M1083.19,548.18a11.75,11.75,0,0,1-1.48-23.45,6.22,6.22,0,0,1,1.67.25,2.83,2.83,0,0,1,2.28,2.57c.15,2.87-3.89,5.05-3.84,9.6s1.29,8.91,3.1,9.65S1083.19,548.18,1083.19,548.18Z" transform="translate(0.94)"/><path class="cls-44" d="M1086.36,522.88s-1.11,2.57-2.15,2.74a.4.4,0,0,0,.45.5c.56,0,3.12-1.85,3.27-2.78S1086.46,522.24,1086.36,522.88Z" transform="translate(0.94)"/><path class="cls-44" d="M1083.19,548.18s-12.86-2.35-10.84-12.34,11.86-10.22,11.86-10.22l.12.36s-9.51.27-11.5,10S1083.19,548.18,1083.19,548.18Z" transform="translate(0.94)"/><path class="cls-47" d="M927.81,492.87a24.64,24.64,0,1,0,40.55,28,13,13,0,0,0,1.35-3.28c.56-2.21.56-5-2.15-6.88-5-3.38-13.28,1.54-21.41-3.48s-14.61-11.95-14-16S927.81,492.87,927.81,492.87Z" transform="translate(0.94)"/><path class="cls-44" d="M976.7,514.52s-5.81-.79-7.25.9a.83.83,0,0,1-.41-1.36c.67-1,6.7-3.61,8.53-2.89S978,515,976.7,514.52Z" transform="translate(0.94)"/><path class="cls-44" d="M927.81,492.87s-9.66,25.65,10.46,32.82,31.18-10.27,31.18-10.27l-.53-.6s-10.76,16.8-30.34,9.89S927.81,492.87,927.81,492.87Z" transform="translate(0.94)"/></svg>