<svg id="Layer_1" data-name="Layer 1" xmlns="http://www.w3.org/2000/svg" viewBox="0 0 1145.41 659"><defs><style>.cls-1{fill:#fbe1ec;}.cls-2{fill:#c7d3bc;}.cls-3,.cls-6{fill:none;stroke-linecap:round;}.cls-3{stroke:#c7d3bc;stroke-miterlimit:10;stroke-width:21px;}.cls-4{fill:#231f20;}.cls-5{fill:#f0f7e9;}.cls-6{stroke:#f0f7e9;stroke-linejoin:round;stroke-width:20px;}</style></defs><title>insert</title><path class="cls-1" d="M118.84,465.83a8.73,8.73,0,0,1,8.48-7.22,8.51,8.51,0,0,1,6.62,3.2l.7-.28a23.68,23.68,0,0,1-.43-4.48c0-12.58,9.84-22.77,22-22.77a22.19,22.19,0,0,1,21.52,18.11s16.08-2.74,22.42,8.57l.07,0a8.61,8.61,0,0,1,6.15-2.6,8.88,8.88,0,0,1,8.62,7.29" transform="translate(-118.84 0)"/><path class="cls-1" d="M626.08,205.18a15.54,15.54,0,0,1,15.09-12.85A15.14,15.14,0,0,1,653,198l1.24-.5a42.13,42.13,0,0,1-.76-8c0-22.37,17.5-40.51,39.1-40.51,18.85,0,34.59,13.82,38.28,32.22,0,0,28.6-4.87,39.88,15.24l.12-.09a15.32,15.32,0,0,1,10.94-4.62,15.8,15.8,0,0,1,15.33,13" transform="translate(-118.84 0)"/><path class="cls-1" d="M790.68,442.59a9.57,9.57,0,0,1,9.29-7.91,9.32,9.32,0,0,1,7.26,3.5l.76-.31a25.94,25.94,0,0,1-.47-4.91c0-13.77,10.78-24.94,24.07-24.94,11.61,0,21.29,8.51,23.57,19.84,0,0,17.61-3,24.55,9.38l.07-.05a9.43,9.43,0,0,1,6.74-2.85,9.73,9.73,0,0,1,9.44,8" transform="translate(-118.84 0)"/><polygon class="cls-2" points="1067.55 658.85 1060.85 0 1007.19 0 990.45 659 1067.55 658.85"/><path class="cls-3" d="M1223.32,327.09V368.4c0,110-76.09,93.34-76.09,93.34m105.38-445V31c0,110-76.09,93.34-76.09,93.34" transform="translate(-118.84 0)"/><path class="cls-4" d="M1182.76,288.46l-1.12-59.18s-16.9,24.54-35.47,24.54-11.61,5-11.61,8.1-3.2,5.31-6.33,5.31-7.52,7.45,1.88,6.71,27.56-.75,32.58,1.49,9.4,3,.63,10.07c-5.18,4.2,19.45,3,19.45,3" transform="translate(-118.84 0)"/><path class="cls-4" d="M1116.26,385.4l-1.47,44.82s20.52-13.41,39.09-13.41,11.61-5,11.61-8.12,3.2-5.29,6.33-5.29,7.52-7.47-1.88-6.72-27.56.75-32.58-1.49-7.52-10.07-1.25-10.07-19.85.27-19.85.27" transform="translate(-118.84 0)"/><path class="cls-4" d="M1124,80.63s14.4-1.26,22.13-1.26,16.51,0,17.76-6-1.41,3.19-10.05-.64a47.36,47.36,0,0,0-19.33-4.07c-3.2,0-10.13-2.63-10.13-2.63Z" transform="translate(-118.84 0)"/><path class="cls-4" d="M1228.08,125.86,1216,102.79a29.31,29.31,0,0,1-4.29,2.7c-1.25.44,13.77,22.72,13.77,22.72Z" transform="translate(-118.84 0)"/><path class="cls-4" d="M1205.81,457.84s-.75.59-2.25-2.08-3-5.61-3-1.46a19.81,19.81,0,0,0,1.5,7.42Z" transform="translate(-118.84 0)"/><path class="cls-4" d="M1232.72,398.74s-.25,6.86-2,11.63c0,0-3.13-4.47-7.26-6.57s-5.51-3.75-3.76-4.47,5.77.3,7-1.49,4-1.34,3.76-3-3.76-3.57-4.64-4.47,6.19,2.54,7.65-.3Z" transform="translate(-118.84 0)"/><path class="cls-4" d="M1185.86,552.75s-18.62,9.69-39.69,6.71c0,0-12.93-1-7.92,3.21s25.68,13.59,47,4.26Z" transform="translate(-118.84 0)"/><path class="cls-4" d="M1123.21,109.34s17.19,17.26,38.26,14.28c0,0,12.93-1,7.92,3.21s-25.53,15.25-46.84,5.91Z" transform="translate(-118.84 0)"/><path class="cls-4" d="M1264.25,22.25s-13.42,6.22-23.36,1.6l.31,8.94,23.06-4.2Z" transform="translate(-118.84 0)"/><polygon class="cls-5" points="894.53 658.85 901.22 0 954.88 0 971.63 659 894.53 658.85"/><path class="cls-6" d="M1145.21,297.84s38.05,8.45,38.05-46.53v-21M1068.74,369.51s76.09,16.62,76.09-93.34V234.86m-92.31,226.89s-76.09,16.62-76.09-93.34V327.09m46.8-202.76S947.14,141,947.14,31V16.75" transform="translate(-118.84 0)"/><path class="cls-4" d="M1017,288.46l1.12-59.18s16.9,24.54,35.47,24.54,11.61,5,11.61,8.1,3.2,5.31,6.33,5.31,7.52,7.45-1.88,6.71-27.56-.75-32.58,1.49-9.4,3-.63,10.07c5.18,4.2-19.45,3-19.45,3" transform="translate(-118.84 0)"/><path class="cls-4" d="M1083.49,385.4l1.47,44.82s-20.52-13.41-39.09-13.41-11.61-5-11.61-8.12-3.2-5.29-6.33-5.29-7.52-7.47,1.88-6.72,27.56.75,32.58-1.49,7.52-10.07,1.25-10.07,19.85.27,19.85.27" transform="translate(-118.84 0)"/><path class="cls-4" d="M1075.71,80.63s-14.4-1.26-22.13-1.26-16.51,0-17.76-6,1.41,3.19,10.05-.64a47.36,47.36,0,0,1,19.33-4.07c3.2,0,10.13-2.63,10.13-2.63Z" transform="translate(-118.84 0)"/><path class="cls-4" d="M971.68,125.86l12.12-23.06a29.31,29.31,0,0,0,4.29,2.7c1.25.44-13.77,22.72-13.77,22.72Z" transform="translate(-118.84 0)"/><path class="cls-4" d="M993.94,457.84s.75.59,2.25-2.08,3-5.61,3-1.46a19.81,19.81,0,0,1-1.5,7.42Z" transform="translate(-118.84 0)"/><path class="cls-4" d="M967,398.74s.25,6.86,2,11.63c0,0,3.13-4.47,7.26-6.57s5.51-3.75,3.76-4.47-5.77.3-7-1.49-4-1.34-3.76-3,3.76-3.57,4.64-4.47-6.19,2.54-7.65-.3Z" transform="translate(-118.84 0)"/><path class="cls-4" d="M1105.71,379.37s-3.66-6.34-4.29-11.25.18-6.17,1.53-3.28,7.37,12.47,7.37,12.47Z" transform="translate(-118.84 0)"/><path class="cls-4" d="M1159.63,282.78s9.62,17.81,3.48,27.35c0,0,5.78-1.58,7-2.77s1.36-23.71-4.89-29.27a16.77,16.77,0,0,1-5.63,4.69" transform="translate(-118.84 0)"/><path class="cls-4" d="M1171.64,245.44s1.78,2.35,7.16.55c0,0,4.76-1.86,2.25,3.24s-7.77,5-9.38,3.36Z" transform="translate(-118.84 0)"/><path class="cls-4" d="M1013.9,552.75s18.62,9.69,39.69,6.71c0,0,12.93-1,7.92,3.21s-25.68,13.59-47,4.26Z" transform="translate(-118.84 0)"/><path class="cls-4" d="M1076.54,109.34s-17.19,17.26-38.26,14.28c0,0-12.93-1-7.92,3.21s25.53,15.25,46.84,5.91Z" transform="translate(-118.84 0)"/><path class="cls-4" d="M935.5,22.25s13.42,6.22,23.36,1.6l-.31,8.94-23.06-4.2Z" transform="translate(-118.84 0)"/></svg>