<?xml version="1.0" encoding="utf-8"?>
<!-- Generator: Adobe Illustrator 21.1.0, SVG Export Plug-In . SVG Version: 6.00 Build 0)  -->
<svg version="1.1" id="Layer_1" xmlns="http://www.w3.org/2000/svg" xmlns:xlink="http://www.w3.org/1999/xlink" x="0px" y="0px"
	 viewBox="0 0 1279 478" style="enable-background:new 0 0 1279 478;" xml:space="preserve">
<style type="text/css">
	.st0{fill:#FBE1EC;}
</style>
<path class="st0" d="M118.3,375.3c0.8-4.1,4.3-7.2,8.5-7.2c2.7,0,5,1.2,6.6,3.2l0.7-0.3c-0.3-1.4-0.4-2.9-0.4-4.5
	c0-12.6,9.8-22.8,22-22.8c10.6,0,19.4,7.8,21.5,18.1c0,0,16.1-2.7,22.4,8.6l0.1,0c1.6-1.6,3.8-2.6,6.2-2.6c4.3,0,7.8,3.1,8.6,7.3"/>
<path class="st0" d="M625.6,114.7c1.4-7.3,7.6-12.9,15.1-12.9c4.7,0,9,2.2,11.8,5.7l1.2-0.5c-0.5-2.6-0.8-5.2-0.8-8
	c0-22.4,17.5-40.5,39.1-40.5c18.9,0,34.6,13.8,38.3,32.2c0,0,28.6-4.9,39.9,15.2l0.1-0.1c2.8-2.9,6.7-4.6,10.9-4.6
	c7.6,0,13.9,5.6,15.3,13"/>
<path class="st0" d="M790.2,352.1c0.9-4.5,4.7-7.9,9.3-7.9c2.9,0,5.5,1.4,7.3,3.5l0.8-0.3c-0.3-1.6-0.5-3.2-0.5-4.9
	c0-13.8,10.8-24.9,24.1-24.9c11.6,0,21.3,8.5,23.6,19.8c0,0,17.6-3,24.6,9.4l0.1-0.1c1.7-1.8,4.1-2.8,6.7-2.8c4.7,0,8.5,3.4,9.4,8"
	/>
</svg>
