<svg id="Layer_1" data-name="Layer 1" xmlns="http://www.w3.org/2000/svg" viewBox="0 0 283.86 477.86"><defs><style>.cls-1{fill:#c7d3bc;}.cls-2,.cls-5{fill:none;stroke-linecap:round;}.cls-2{stroke:#c7d3bc;stroke-miterlimit:10;stroke-width:21px;}.cls-3{fill:#231f20;}.cls-4{fill:#f0f7e9;}.cls-5{stroke:#f0f7e9;stroke-linejoin:round;stroke-width:20px;}</style></defs><title>puut</title><polygon class="cls-1" points="216.27 477.75 210.5 0 164.24 0 149.81 477.86 216.27 477.75"/><path class="cls-2" d="M303.3,237.18v30c0,79.74-65.59,67.69-65.59,67.69M328.55,12.14V22.47c0,79.74-65.59,67.69-65.59,67.69" transform="translate(-55.19 0)"/><path class="cls-3" d="M268.33,209.17l-1-42.91s-14.57,17.8-30.57,17.8-10,3.65-10,5.88-2.76,3.85-5.46,3.85-6.48,5.4,1.62,4.86,23.76-.54,28.08,1.08,8.1,2.16.54,7.3c-4.46,3,16.77,2.15,16.77,2.15" transform="translate(-55.19 0)"/><path class="cls-3" d="M211,279.46,209.75,312s17.68-9.72,33.69-9.72,10-3.66,10-5.89,2.76-3.84,5.46-3.84,6.48-5.41-1.62-4.87-23.76.54-28.08-1.08-6.48-7.3-1.08-7.3-17.11.2-17.11.2" transform="translate(-55.19 0)"/><path class="cls-3" d="M217.72,58.47s12.42-.91,19.08-.91,14.23,0,15.31-4.32-1.21,2.32-8.67-.46a47.62,47.62,0,0,0-16.66-3c-2.76,0-8.73-1.91-8.73-1.91Z" transform="translate(-55.19 0)"/><path class="cls-3" d="M307.4,91.26,296.95,74.54a26.3,26.3,0,0,1-3.7,2C292.17,76.82,305.12,93,305.12,93Z" transform="translate(-55.19 0)"/><path class="cls-3" d="M288.2,332s-.65.43-1.94-1.51-2.59-4.07-2.59-1.06A12.5,12.5,0,0,0,285,334.8Z" transform="translate(-55.19 0)"/><path class="cls-3" d="M311.4,289.14a28.41,28.41,0,0,1-1.73,8.43,19.27,19.27,0,0,0-6.26-4.76c-3.56-1.51-4.75-2.72-3.24-3.24s5,.22,6.05-1.08,3.45-1,3.24-2.16-3.24-2.59-4-3.24,5.34,1.84,6.59-.22Z" transform="translate(-55.19 0)"/><path class="cls-3" d="M271,400.82s-16.05,7-34.21,4.86c0,0-11.15-.76-6.82,2.33s22.14,9.86,40.5,3.09Z" transform="translate(-55.19 0)"/><path class="cls-3" d="M217,79.29s14.82,12.51,33,10.35c0,0,11.15-.76,6.82,2.33s-22,11.06-40.38,4.29Z" transform="translate(-55.19 0)"/><path class="cls-3" d="M338.58,16.13S327,20.64,318.44,17.29l.26,6.48,19.87-3Z" transform="translate(-55.19 0)"/><polygon class="cls-4" points="67.12 477.75 72.89 0 119.15 0 133.59 477.86 67.12 477.75"/><path class="cls-5" d="M236,216s32.8,6.13,32.8-33.74V167M170,267.94s65.59,12.05,65.59-67.69v-30M156.07,334.82s-65.59,12.05-65.59-67.69v-30m40.34-147S65.23,102.21,65.23,22.47V12.14" transform="translate(-55.19 0)"/><path class="cls-3" d="M125.44,209.17l1-42.91S141,184.06,157,184.06s10,3.65,10,5.88,2.76,3.85,5.46,3.85,6.48,5.4-1.62,4.86-23.76-.54-28.08,1.08-8.1,2.16-.54,7.3c4.46,3-16.77,2.15-16.77,2.15" transform="translate(-55.19 0)"/><path class="cls-3" d="M182.76,279.46,184,312s-17.68-9.72-33.69-9.72-10-3.66-10-5.89-2.76-3.84-5.46-3.84-6.48-5.41,1.62-4.87,23.76.54,28.08-1.08,6.48-7.3,1.08-7.3,17.11.2,17.11.2" transform="translate(-55.19 0)"/><path class="cls-3" d="M176.06,58.47s-12.42-.91-19.08-.91-14.23,0-15.31-4.32,1.21,2.32,8.67-.46a47.62,47.62,0,0,1,16.66-3c2.76,0,8.73-1.91,8.73-1.91Z" transform="translate(-55.19 0)"/><path class="cls-3" d="M86.38,91.26,96.83,74.54a26.3,26.3,0,0,0,3.7,2C101.61,76.82,88.66,93,88.66,93Z" transform="translate(-55.19 0)"/><path class="cls-3" d="M105.57,332s.65.43,1.94-1.51,2.59-4.07,2.59-1.06a12.5,12.5,0,0,1-1.29,5.38Z" transform="translate(-55.19 0)"/><path class="cls-3" d="M82.38,289.14a28.41,28.41,0,0,0,1.73,8.43,19.27,19.27,0,0,1,6.26-4.76c3.56-1.51,4.75-2.72,3.24-3.24s-5,.22-6.05-1.08-3.45-1-3.24-2.16,3.24-2.59,4-3.24-5.34,1.84-6.59-.22Z" transform="translate(-55.19 0)"/><path class="cls-3" d="M201.92,275.09s-3.15-4.6-3.69-8.16.15-4.48,1.32-2.38,6.35,9,6.35,9Z" transform="translate(-55.19 0)"/><path class="cls-3" d="M248.4,205s8.3,12.92,3,19.83c0,0,5-1.15,6.06-2s1.17-17.19-4.22-21.23a14,14,0,0,1-4.85,3.4" transform="translate(-55.19 0)"/><path class="cls-3" d="M258.75,178s1.53,1.7,6.17.4c0,0,4.1-1.35,1.94,2.35s-6.7,3.66-8.08,2.43Z" transform="translate(-55.19 0)"/><path class="cls-3" d="M122.77,400.82s16.05,7,34.21,4.86c0,0,11.15-.76,6.82,2.33s-22.14,9.86-40.5,3.09Z" transform="translate(-55.19 0)"/><path class="cls-3" d="M176.77,79.29S162,91.8,143.79,89.64c0,0-11.15-.76-6.82,2.33s22,11.06,40.38,4.29Z" transform="translate(-55.19 0)"/><path class="cls-3" d="M55.19,16.13s11.57,4.51,20.14,1.16l-.26,6.48-19.87-3Z" transform="translate(-55.19 0)"/></svg>