<?xml version="1.0" encoding="utf-8"?>
<!-- Generator: Adobe Illustrator 21.1.0, SVG Export Plug-In . SVG Version: 6.00 Build 0)  -->
<svg version="1.1" id="Layer_1" xmlns="http://www.w3.org/2000/svg" xmlns:xlink="http://www.w3.org/1999/xlink" x="0px" y="0px"
	 viewBox="0 0 1280 594" style="enable-background:new 0 0 1280 594;" xml:space="preserve">
<style type="text/css">
	.st0{fill:#64897B;}
	.st1{opacity:0.29;fill:#D4DEDB;}
	.st2{opacity:0.76;fill:#D4DEDB;}
	.st3{fill:#234143;}
	.st4{fill:none;stroke:#64897B;stroke-linecap:round;stroke-miterlimit:10;}
	.st5{opacity:0.51;fill:#234143;}
	.st6{opacity:0.71;fill:#234143;}
</style>
<rect class="st0" width="1280" height="594"/>
<circle class="st1" cx="210" cy="124" r="15"/>
<circle class="st2" cx="210" cy="124" r="9"/>
<circle class="st1" cx="443" cy="515" r="15"/>
<circle class="st2" cx="443" cy="515" r="9"/>
<circle class="st1" cx="183" cy="375" r="9"/>
<circle class="st2" cx="183" cy="375" r="5.4"/>
<circle class="st1" cx="728" cy="95" r="9"/>
<circle class="st2" cx="728" cy="95" r="5.4"/>
<circle class="st1" cx="1195" cy="107" r="17"/>
<circle class="st2" cx="1195" cy="107" r="10.2"/>
<circle class="st1" cx="943" cy="115" r="10"/>
<circle class="st2" cx="943" cy="115" r="6"/>
<circle class="st1" cx="1021" cy="540" r="10"/>
<circle class="st2" cx="1021" cy="540" r="6"/>
<circle class="st1" cx="899" cy="392" r="6"/>
<circle class="st2" cx="899" cy="392" r="3.6"/>
<circle class="st1" cx="39" cy="90" r="6"/>
<circle class="st2" cx="39" cy="90" r="3.6"/>
<g>
	<path class="st3" d="M-0.4,301.2c5.7-12.9,3.5-27.7,5.2-41.7c1.7-14,10.4-29.5,24.8-30.2c3-0.1,6.1,0.4,8.5,2.1
		c6.3,4.3,5.5,13.8,2.1,20.4c-3.4,6.7-8.7,12.7-9.6,20.1c-0.2,2,0,4.3,1.7,5.5c2.9,1.9,6.4-1.1,8.2-4c8.9-14.8,10.4-33,19.4-47.7
		c2.9-4.7,6.7-9.1,12-11.1c5.3-1.9,12.1-0.6,15.1,4.1c7,11.3-13.5,25.2-7.1,36.9c5.5-6.5,10.9-12.9,16.4-19.4
		c9.3-11,18.9-22.3,31.5-29.7c3.5-2,7.2-3.8,11.3-4.2c7.3-0.6,14.6,3.7,18.4,9.8c3.8,6.2,4.3,13.8,2.6,20.8
		c-2.5,10.2-10,19.1-19.8,23.6c-13.7,6.3-29.8,3.7-44.9,5.5c-3.4,0.4-7.4,1.7-8,4.9c-0.6,3.1,2.4,5.8,5.4,7.1
		c10.8,4.7,23.5,1.1,34.9,3.9c13.4,3.3,23.7,16.2,23.5,29.6c-0.1,3.3-0.8,6.9-3.2,9.2c-1.5,1.5-3.6,2.3-5.6,2.9
		c-7.8,2.3-16.5,1.4-23.7-2.3c-8.2-4.3-14.1-11.7-20.5-18.2c-6.5-6.5-14.7-12.5-24-12.3c-1,0-2,0.1-2.8,0.7c-1.9,1.4-1,4.4,0.2,6.5
		c11.1,18.5,34.6,30.8,37.4,51.9c0.5,3.5,0.1,7.5-2.6,9.8c-4.7,4.1-12.2,0.3-16.5-4.3c-12.9-13.6-18.4-34-35-43.2
		c-3.3-1.8-8.2-2.7-10.2,0.4c-1.3,2.1-0.5,4.8,0.5,7.1c3.4,7.8,8,15.2,13.5,21.8c3.5,4.2,7.7,9.1,6.5,14.4
		c-1.1,4.7-6.5,7.5-11.4,7.4c-5-0.2-9.6-2.6-13.7-5.3c-9.3-6-18.1-13.7-29-15.9c-0.8-0.2-1.6-0.3-2.3,0.1c-0.7,0.3-1,1.1-1.3,1.8
		c-2.3,7,4.6,13.3,10.3,18.3c5.7,4.9,10.9,13.7,5.6,18.9c-4,3.9-18.4,0.6-23.4-2.2"/>
	<path class="st4" d="M151.5,222.5c0,0-99,45-151.9,111.6"/>
	<path class="st4" d="M24,250c0,0-15.7,31.6-1.8,59.3"/>
	<path class="st4" d="M76,228c0,0-21.4,29.6-17.2,50.3"/>
	<path class="st4" d="M73.5,267.7c0,0,45.5,39.3,64.5,36.3"/>
	<path class="st4" d="M43.1,290.6c0,0,34.9,13.4,55.9,53.4"/>
	<path class="st4" d="M12.5,319.2c0,0,29,28.3,41,28.3"/>
</g>
<g>
	<path class="st3" d="M1145.4,594.3c10.4-4.5,22.3-2.8,33.5-4.2c11.2-1.4,23.7-8.3,24.3-20c0.1-2.4-0.3-4.9-1.7-6.8
		c-3.5-5.1-11.1-4.4-16.4-1.7c-5.4,2.7-10.2,7-16.1,7.7c-1.6,0.2-3.5,0-4.4-1.4c-1.5-2.3,0.9-5.2,3.2-6.6
		c11.9-7.2,26.5-8.3,38.4-15.6c3.8-2.3,7.4-5.4,8.9-9.6c1.6-4.2,0.5-9.7-3.3-12.1c-9.1-5.6-20.3,10.8-29.7,5.7
		c5.2-4.4,10.4-8.8,15.6-13.2c8.9-7.5,17.9-15.2,23.9-25.3c1.6-2.8,3.1-5.8,3.3-9.1c0.5-5.9-3-11.7-7.9-14.8c-5-3-11.1-3.5-16.7-2.1
		c-8.2,2-15.4,8-19,15.9c-5,11-3,24-4.5,36.1c-0.3,2.7-1.3,6-3.9,6.5c-2.5,0.5-4.7-2-5.7-4.4c-3.8-8.7-0.9-18.9-3.1-28.1
		c-2.6-10.8-13.1-19.1-23.8-18.9c-2.7,0-5.5,0.6-7.4,2.6c-1.2,1.2-1.9,2.9-2.3,4.5c-1.8,6.2-1.1,13.2,1.9,19
		c3.4,6.6,9.4,11.3,14.7,16.5c5.2,5.2,10.1,11.8,9.9,19.3c0,0.8-0.1,1.6-0.6,2.3c-1.2,1.5-3.6,0.8-5.2-0.2
		c-14.9-8.9-24.7-27.8-41.8-30c-2.8-0.4-6-0.1-7.9,2.1c-3.3,3.8-0.2,9.8,3.4,13.3c10.9,10.4,27.4,14.8,34.7,28.1
		c1.5,2.6,2.2,6.6-0.3,8.2c-1.7,1.1-3.9,0.4-5.7-0.4c-6.3-2.8-12.2-6.4-17.5-10.8c-3.4-2.8-7.3-6.2-11.5-5.2c-3.8,0.9-6,5.2-5.9,9.2
		c0.1,4,2.1,7.7,4.3,11c4.8,7.5,11,14.6,12.8,23.4c0.1,0.6,0.2,1.3-0.1,1.8c-0.3,0.5-0.8,0.8-1.4,1c-5.6,1.9-10.7-3.7-14.7-8.3
		c-4-4.6-11-8.8-15.2-4.5c-3.2,3.2-0.5,14.8,1.7,18.8"/>
	<path class="st4" d="M1208.7,472.2c0,0-36.2,79.6-89.7,122.2"/>
	<path class="st4" d="M1186.6,574.7c0,0-25.4,12.6-47.7,1.5"/>
	<path class="st4" d="M1204.3,532.9c0,0-23.8,17.2-40.4,13.8"/>
	<path class="st4" d="M1172.4,534.9c0,0-31.6-36.6-29.2-51.8"/>
	<path class="st4" d="M1154,559.3c0,0-10.8-28-42.9-44.9"/>
	<path class="st4" d="M1131,583.9c0,0-22.8-23.3-22.8-33"/>
</g>
<g>
	<path class="st5" d="M1044.2,593.9c5.8-2.6,12.5-1.6,18.8-2.3c6.3-0.8,13.3-4.7,13.6-11.2c0.1-1.3-0.2-2.7-0.9-3.8
		c-2-2.8-6.2-2.5-9.2-1c-3,1.5-5.7,3.9-9.1,4.3c-0.9,0.1-2,0-2.5-0.8c-0.9-1.3,0.5-2.9,1.8-3.7c6.7-4,14.9-4.7,21.5-8.7
		c2.1-1.3,4.1-3,5-5.4c0.9-2.4,0.3-5.5-1.9-6.8c-5.1-3.2-11.4,6.1-16.7,3.2c2.9-2.5,5.8-4.9,8.8-7.4c5-4.2,10.1-8.5,13.4-14.2
		c0.9-1.6,1.7-3.3,1.9-5.1c0.3-3.3-1.7-6.6-4.4-8.3c-2.8-1.7-6.2-2-9.4-1.2c-4.6,1.1-8.6,4.5-10.7,8.9c-2.8,6.2-1.7,13.4-2.5,20.2
		c-0.2,1.5-0.7,3.3-2.2,3.6c-1.4,0.3-2.6-1.1-3.2-2.5c-2.1-4.9-0.5-10.6-1.8-15.8c-1.5-6.1-7.3-10.7-13.4-10.6
		c-1.5,0-3.1,0.4-4.2,1.5c-0.7,0.7-1,1.6-1.3,2.5c-1,3.5-0.6,7.4,1.1,10.7c1.9,3.7,5.3,6.3,8.2,9.3c2.9,2.9,5.7,6.6,5.6,10.8
		c0,0.4-0.1,0.9-0.3,1.3c-0.7,0.9-2,0.5-2.9-0.1c-8.4-5-13.9-15.6-23.4-16.9c-1.6-0.2-3.4,0-4.4,1.2c-1.8,2.1-0.1,5.5,1.9,7.5
		c6.1,5.8,15.4,8.3,19.5,15.8c0.8,1.5,1.2,3.7-0.2,4.6c-0.9,0.6-2.2,0.2-3.2-0.2c-3.5-1.5-6.9-3.6-9.9-6.1c-1.9-1.6-4.1-3.5-6.5-2.9
		c-2.1,0.5-3.4,2.9-3.3,5.2c0.1,2.2,1.2,4.3,2.4,6.2c2.7,4.2,6.2,8.2,7.2,13.1c0.1,0.3,0.1,0.7,0,1c-0.2,0.3-0.5,0.5-0.8,0.6
		c-3.1,1.1-6-2.1-8.2-4.7c-2.2-2.6-6.2-4.9-8.5-2.5c-1.8,1.8-0.3,8.3,1,10.5"/>
	<path class="st4" d="M1079.7,525.3c0,0-20.3,44.7-50.4,68.6"/>
	<path class="st4" d="M1067.3,582.8c0,0-14.3,7.1-26.8,0.8"/>
	<path class="st4" d="M1077.2,559.4c0,0-13.4,9.7-22.7,7.8"/>
	<path class="st4" d="M1059.3,560.5c0,0-17.7-20.5-16.4-29.1"/>
	<path class="st4" d="M1049,574.2c0,0-6-15.7-24.1-25.2"/>
	<path class="st4" d="M1036.1,588c0,0-12.8-13.1-12.8-18.5"/>
</g>
<g>
	<path class="st6" d="M-0.4,497.2c5.7-12.9,3.5-27.7,5.2-41.7c1.7-14,10.4-29.5,24.8-30.2c3-0.1,6.1,0.4,8.5,2.1
		c6.3,4.3,5.5,13.8,2.1,20.4c-3.4,6.7-8.7,12.7-9.6,20.1c-0.2,2,0,4.3,1.7,5.5c2.9,1.9,6.4-1.1,8.2-4c8.9-14.8,10.4-33,19.4-47.7
		c2.9-4.7,6.7-9.1,12-11.1c5.3-1.9,12.1-0.6,15.1,4.1c7,11.3-13.5,25.2-7.1,36.9c5.5-6.5,10.9-12.9,16.4-19.4
		c9.3-11,18.9-22.3,31.5-29.7c3.5-2,7.2-3.8,11.3-4.2c7.3-0.6,14.6,3.7,18.4,9.8c3.8,6.2,4.3,13.8,2.6,20.8
		c-2.5,10.2-10,19.1-19.8,23.6c-13.7,6.3-29.8,3.7-44.9,5.5c-3.4,0.4-7.4,1.7-8,4.9c-0.6,3.1,2.4,5.8,5.4,7.1
		c10.8,4.7,23.5,1.1,34.9,3.9c13.4,3.3,23.7,16.2,23.5,29.6c-0.1,3.3-0.8,6.9-3.2,9.2c-1.5,1.5-3.6,2.3-5.6,2.9
		c-7.8,2.3-16.5,1.4-23.7-2.3c-8.2-4.3-14.1-11.7-20.5-18.2c-6.5-6.5-14.7-12.5-24-12.3c-1,0-2,0.1-2.8,0.7c-1.9,1.4-1,4.4,0.2,6.5
		c11.1,18.5,34.6,30.8,37.4,51.9c0.5,3.5,0.1,7.5-2.6,9.8c-4.7,4.1-12.2,0.3-16.5-4.3c-12.9-13.6-18.4-34-35-43.2
		c-3.3-1.8-8.2-2.7-10.2,0.4c-1.3,2.1-0.5,4.8,0.5,7.1c3.4,7.8,8,15.2,13.5,21.8c3.5,4.2,7.7,9.1,6.5,14.4
		c-1.1,4.7-6.5,7.5-11.4,7.4c-5-0.2-9.6-2.6-13.7-5.3c-9.3-6-18.1-13.7-29-15.9c-0.8-0.2-1.6-0.3-2.3,0.1c-0.7,0.3-1,1.1-1.3,1.8
		c-2.3,7,4.6,13.3,10.3,18.3c5.7,4.9,10.9,13.7,5.6,18.9c-4,3.9-18.4,0.6-23.4-2.2"/>
	<path class="st4" d="M151.5,418.5c0,0-99,45-151.9,111.6"/>
	<path class="st4" d="M24,446c0,0-15.7,31.6-1.8,59.3"/>
	<path class="st4" d="M76,424c0,0-21.4,29.6-17.2,50.3"/>
	<path class="st4" d="M73.5,463.7c0,0,45.5,39.3,64.5,36.3"/>
	<path class="st4" d="M43.1,486.6c0,0,34.9,13.4,55.9,53.4"/>
	<path class="st4" d="M12.5,515.2c0,0,29,28.3,41,28.3"/>
</g>
</svg>
