<svg id="Layer_1" data-name="Layer 1" xmlns="http://www.w3.org/2000/svg" viewBox="0 0 1280 1552"><defs><style>.cls-1{fill:#3b3b3b;}.cls-2{opacity:0.62;}.cls-3,.cls-4{fill:#d4dedb;}.cls-3{opacity:0.29;}.cls-4{opacity:0.76;}</style></defs><title>tiimi</title><rect class="cls-1" width="1280" height="1552"/><g class="cls-2"><circle class="cls-3" cx="146" cy="592" r="15"/><circle class="cls-4" cx="146" cy="592" r="9"/></g><g class="cls-2"><circle class="cls-3" cx="379" cy="983" r="15"/><circle class="cls-4" cx="379" cy="983" r="9"/></g><g class="cls-2"><circle class="cls-3" cx="77" cy="1337" r="15"/><circle class="cls-4" cx="77" cy="1337" r="9"/></g><g class="cls-2"><circle class="cls-3" cx="664" cy="563" r="9"/><circle class="cls-4" cx="664" cy="563" r="5.4"/></g><g class="cls-2"><circle class="cls-3" cx="1131" cy="575" r="17"/><circle class="cls-4" cx="1131" cy="575" r="10.2"/></g><g class="cls-2"><circle class="cls-3" cx="1141" cy="167" r="17"/><circle class="cls-4" cx="1141" cy="167" r="10.2"/></g><g class="cls-2"><circle class="cls-3" cx="723" cy="140" r="17"/><circle class="cls-4" cx="723" cy="140" r="10.2"/></g><g class="cls-2"><circle class="cls-3" cx="155" cy="167" r="17"/><circle class="cls-4" cx="155" cy="167" r="10.2"/></g><g class="cls-2"><circle class="cls-3" cx="879" cy="583" r="10"/><circle class="cls-4" cx="879" cy="583" r="6"/></g><g class="cls-2"><circle class="cls-3" cx="835" cy="860" r="6"/><circle class="cls-4" cx="835" cy="860" r="3.6"/></g><g class="cls-2"><circle class="cls-3" cx="430.36" cy="1431.9" r="9" transform="translate(-501.78 262.86) rotate(-21.84)"/><circle class="cls-4" cx="430.36" cy="1431.9" r="5.4" transform="translate(-501.78 262.86) rotate(-21.84)"/></g><g class="cls-2"><circle class="cls-3" cx="1189.31" cy="1406.31" r="17" transform="translate(-437.79 543.35) rotate(-21.84)"/><circle class="cls-4" cx="1189.31" cy="1406.31" r="10.2" transform="translate(-437.79 543.35) rotate(-21.84)"/></g><g class="cls-2"><circle class="cls-3" cx="958.37" cy="1507.48" r="10" transform="translate(-492 464.7) rotate(-21.84)"/><circle class="cls-4" cx="958.37" cy="1507.48" r="6" transform="translate(-492 464.7) rotate(-21.84)"/></g></svg>